<?xml version="1.0" encoding="iso-8859-1"?>
<!-- Generator: Adobe Illustrator 19.0.0, SVG Export Plug-In . SVG Version: 6.00 Build 0)  -->
<svg xmlns="http://www.w3.org/2000/svg" xmlns:xlink="http://www.w3.org/1999/xlink" version="1.1" id="Capa_1" x="0px" y="0px" viewBox="0 0 512.001 512.001" style="enable-background:new 0 0 512.001 512.001;" xml:space="preserve" width="512px" height="512px">
<g>
	<g>
		<path d="M320.572,191.429c-1.841-1.831-4.372-2.875-6.971-2.875c-2.59,0-5.13,1.044-6.951,2.875    c-1.841,1.831-2.885,4.372-2.885,6.961c0,2.599,1.044,5.13,2.885,6.961c1.822,1.841,4.362,2.885,6.951,2.885    c2.599,0,5.14-1.044,6.971-2.885c1.831-1.831,2.885-4.362,2.885-6.961C323.457,195.801,322.403,193.27,320.572,191.429z" fill="#008cb1"/>
	</g>
</g>
<g>
	<g>
		<path d="M337.155,323.23l11.871-11.872c4.375-4.376,6.784-10.193,6.784-16.38s-2.409-12.003-6.784-16.379L326.428,256    l90.688-90.688c3.909,0.555,7.849,0.837,11.791,0.837c21.279,0,42.557-8.099,58.756-24.298    C503.358,126.156,512,105.289,512,83.094c0-22.195-8.643-43.062-24.338-58.756C471.969,8.643,451.102,0,428.907,0    c-22.195,0-43.062,8.643-58.757,24.338c-19.199,19.199-27.018,45.534-23.461,70.547l-90.688,90.688l-90.688-90.688    c3.556-25.013-4.262-51.348-23.461-70.548C126.156,8.643,105.289,0,83.094,0C60.899,0,40.032,8.643,24.338,24.338    C8.643,40.031,0.001,60.898,0.001,83.094c0,22.195,8.643,43.062,24.338,58.757c16.199,16.199,37.477,24.298,58.756,24.298    c3.941,0,7.882-0.282,11.792-0.837L185.573,256l-22.599,22.599c-4.375,4.376-6.784,10.193-6.784,16.379    c0,6.187,2.409,12.004,6.784,16.38l11.871,11.872L2.884,495.192c-3.845,3.845-3.845,10.08,0,13.925    C4.806,511.038,7.327,512,9.847,512c2.52,0,5.04-0.962,6.962-2.884l171.962-171.962l11.872,11.871    c4.376,4.375,10.193,6.784,16.38,6.784s12.003-2.409,16.379-6.784l22.599-22.598l22.599,22.599    c4.376,4.375,10.193,6.784,16.379,6.784c6.187,0,12.004-2.409,16.38-6.784l11.872-11.872l171.962,171.962    c1.923,1.922,4.443,2.884,6.962,2.884c2.52,0,5.04-0.962,6.962-2.884c3.845-3.845,3.845-10.08,0-13.925L337.155,323.23z     M384.075,38.262c11.975-11.975,27.896-18.57,44.831-18.57c16.935,0,32.857,6.595,44.832,18.57s18.57,27.896,18.57,44.832    c0,16.935-6.595,32.857-18.57,44.831c-12.362,12.362-28.594,18.542-44.832,18.54c-6.082,0-12.165-0.868-18.044-2.604    c-0.02-0.006-0.038-0.012-0.058-0.018c-0.895-0.265-1.784-0.554-2.669-0.86c-0.132-0.045-0.264-0.091-0.395-0.137    c-1.819-0.641-3.614-1.367-5.378-2.178c-0.166-0.077-0.332-0.158-0.498-0.236c-0.694-0.327-1.383-0.668-2.068-1.02    c-0.216-0.111-0.431-0.221-0.645-0.335c-0.826-0.438-1.646-0.89-2.457-1.368c-0.038-0.023-0.076-0.047-0.115-0.071    c-0.759-0.45-1.509-0.922-2.254-1.406c-0.248-0.161-0.493-0.327-0.738-0.491c-0.581-0.39-1.156-0.791-1.726-1.201    c-0.212-0.153-0.426-0.302-0.637-0.458c-0.739-0.546-1.469-1.111-2.19-1.695c-0.182-0.148-0.359-0.301-0.541-0.451    c-0.572-0.474-1.137-0.958-1.695-1.455c-0.212-0.189-0.424-0.377-0.634-0.569c-0.696-0.636-1.385-1.284-2.059-1.956    c-0.011-0.011-0.023-0.022-0.033-0.032c-0.011-0.011-0.021-0.022-0.032-0.033c-0.673-0.674-1.322-1.364-1.959-2.061    c-0.191-0.21-0.379-0.42-0.567-0.632c-0.497-0.559-0.982-1.124-1.456-1.696c-0.15-0.18-0.303-0.358-0.451-0.541    c-0.582-0.719-1.146-1.448-1.692-2.186c-0.159-0.215-0.311-0.433-0.467-0.65c-0.407-0.564-0.803-1.133-1.188-1.707    c-0.168-0.251-0.337-0.501-0.502-0.754c-0.472-0.726-0.932-1.456-1.371-2.197c-0.036-0.062-0.077-0.123-0.113-0.185    c-0.47-0.797-0.915-1.605-1.346-2.418c-0.122-0.229-0.239-0.46-0.358-0.69c-0.341-0.662-0.671-1.328-0.987-1.999    c-0.088-0.186-0.178-0.371-0.265-0.559c-0.402-0.874-0.787-1.756-1.147-2.644c-0.007-0.018-0.013-0.035-0.021-0.052    c-0.352-0.87-0.678-1.747-0.991-2.629c-0.055-0.155-0.108-0.311-0.161-0.467c-0.293-0.852-0.571-1.707-0.827-2.568    c-0.015-0.048-0.031-0.096-0.044-0.145C361.777,79.549,367.091,55.247,384.075,38.262z M352.849,116.574    c0.131,0.297,0.279,0.587,0.413,0.882c0.224,0.492,0.454,0.982,0.687,1.471c0.328,0.686,0.664,1.369,1.01,2.046    c0.268,0.524,0.542,1.044,0.821,1.563c0.342,0.634,0.693,1.263,1.052,1.888c0.307,0.537,0.618,1.07,0.938,1.601    c0.363,0.602,0.738,1.197,1.118,1.79c0.34,0.532,0.679,1.062,1.033,1.588c0.395,0.588,0.804,1.167,1.215,1.745    c0.361,0.51,0.721,1.021,1.095,1.524c0.446,0.6,0.911,1.186,1.373,1.775c0.003,0.004,0.007,0.009,0.01,0.013l-36.084,36.084    c-3.845,3.845-3.845,10.08,0,13.925c1.923,1.923,4.443,2.884,6.962,2.884s5.04-0.961,6.962-2.884l36.084-36.084    c0.011,0.009,0.022,0.017,0.032,0.025c0.58,0.457,1.159,0.915,1.751,1.355c0.511,0.38,1.029,0.744,1.547,1.112    c0.57,0.405,1.14,0.808,1.719,1.197c0.534,0.358,1.072,0.704,1.613,1.049c0.585,0.373,1.171,0.742,1.764,1.101    c0.539,0.325,1.08,0.64,1.624,0.952c0.618,0.354,1.241,0.702,1.868,1.04c0.525,0.283,1.052,0.56,1.581,0.831    c0.671,0.344,1.347,0.675,2.027,1c0.494,0.236,0.99,0.47,1.488,0.695c0.293,0.133,0.581,0.28,0.876,0.41l-82.924,82.923    l-42.578-42.578L352.849,116.574z M115.176,137.785c-0.752,0.441-1.513,0.863-2.28,1.27c-0.255,0.136-0.512,0.267-0.768,0.399    c-0.624,0.321-1.251,0.631-1.884,0.929c-0.221,0.104-0.439,0.211-0.66,0.313c-0.853,0.391-1.711,0.766-2.577,1.118    c-0.072,0.03-0.145,0.055-0.217,0.084c-0.81,0.325-1.626,0.631-2.446,0.922c-0.193,0.068-0.386,0.135-0.58,0.201    c-0.796,0.273-1.596,0.533-2.401,0.773c-0.097,0.03-0.195,0.061-0.292,0.09c-5.858,1.722-11.918,2.585-17.978,2.584    c-16.233-0.002-32.473-6.182-44.832-18.541c-11.975-11.975-18.57-27.896-18.57-44.831c0-16.935,6.595-32.857,18.57-44.832    s27.896-18.57,44.832-18.57c16.935,0,32.857,6.595,44.831,18.57c16.982,16.982,22.297,41.278,15.947,62.84    c-0.018,0.061-0.037,0.121-0.056,0.182c-0.252,0.847-0.526,1.689-0.813,2.527c-0.056,0.164-0.113,0.329-0.171,0.492    c-0.306,0.867-0.629,1.73-0.974,2.586c-0.012,0.031-0.023,0.061-0.035,0.092c-0.357,0.883-0.74,1.759-1.139,2.628    c-0.09,0.195-0.184,0.389-0.277,0.583c-0.312,0.662-0.637,1.319-0.974,1.972c-0.122,0.236-0.242,0.473-0.367,0.708    c-0.425,0.8-0.864,1.595-1.325,2.38c-0.048,0.082-0.099,0.162-0.148,0.244c-0.433,0.729-0.885,1.448-1.35,2.163    c-0.167,0.257-0.339,0.511-0.509,0.766c-0.384,0.571-0.778,1.137-1.182,1.698c-0.158,0.219-0.311,0.439-0.471,0.656    c-0.545,0.737-1.109,1.466-1.691,2.185c-0.147,0.181-0.3,0.358-0.449,0.539c-0.476,0.574-0.963,1.142-1.462,1.703    c-0.185,0.208-0.37,0.415-0.558,0.621c-0.647,0.709-1.307,1.41-1.992,2.096c-0.001,0.001-0.002,0.002-0.003,0.003    s-0.002,0.002-0.003,0.003c-0.684,0.684-1.385,1.343-2.093,1.99c-0.208,0.189-0.417,0.376-0.626,0.562    c-0.558,0.496-1.123,0.981-1.695,1.454c-0.183,0.152-0.363,0.307-0.547,0.457c-0.716,0.58-1.442,1.141-2.177,1.685    c-0.224,0.164-0.45,0.323-0.675,0.485c-0.551,0.397-1.107,0.785-1.668,1.162c-0.264,0.177-0.527,0.354-0.794,0.528    c-0.689,0.448-1.384,0.883-2.086,1.303C115.433,137.632,115.305,137.709,115.176,137.785z M219.477,335.101    c-1.354,1.354-3.557,1.353-4.909,0L176.9,297.433c-1.354-1.354-1.354-3.555,0-4.909l22.599-22.599l42.578,42.578L219.477,335.101z     M335.101,297.433l-37.667,37.669c-1.354,1.354-3.556,1.353-4.909,0L117.444,158.744c0.5-0.227,0.997-0.462,1.495-0.698    c0.679-0.325,1.356-0.657,2.026-1c0.529-0.27,1.054-0.546,1.577-0.828c0.63-0.34,1.255-0.689,1.877-1.045    c0.541-0.309,1.078-0.622,1.613-0.945c0.598-0.36,1.187-0.733,1.776-1.109c0.537-0.343,1.071-0.685,1.601-1.042    c0.584-0.392,1.158-0.799,1.731-1.205c0.514-0.364,1.029-0.726,1.536-1.104c0.594-0.442,1.176-0.903,1.759-1.362    c0.009-0.007,0.018-0.014,0.026-0.02l36.084,36.084c1.923,1.923,4.443,2.884,6.962,2.884c2.52,0,5.04-0.961,6.962-2.884    c3.845-3.845,3.845-10.08,0-13.925l-36.084-36.084c0.009-0.012,0.018-0.024,0.027-0.035c0.456-0.579,0.913-1.157,1.352-1.747    c0.381-0.511,0.745-1.031,1.113-1.549c0.404-0.569,0.806-1.138,1.195-1.717c0.359-0.535,0.705-1.074,1.051-1.615    c0.373-0.584,0.741-1.169,1.1-1.761c0.325-0.539,0.641-1.081,0.953-1.626c0.354-0.617,0.7-1.238,1.038-1.864    c0.285-0.528,0.562-1.057,0.835-1.589c0.341-0.667,0.671-1.337,0.994-2.013c0.239-0.501,0.477-1.003,0.705-1.508    c0.131-0.289,0.277-0.573,0.405-0.865l175.95,175.951C336.454,293.877,336.454,296.079,335.101,297.433z M116.573,159.151    c0.031-0.014,0.061-0.029,0.091-0.043C116.612,159.133,116.573,159.151,116.573,159.151z" fill="#008cb1"/>
	</g>
</g>
<g>
	<g>
		<path d="M205.362,191.429c-1.841-1.831-4.372-2.875-6.971-2.875c-2.59,0-5.13,1.044-6.961,2.875    c-1.831,1.831-2.875,4.372-2.875,6.961c0,2.599,1.044,5.14,2.875,6.961c1.831,1.841,4.372,2.885,6.961,2.885    c2.599,0,5.14-1.044,6.971-2.885c1.831-1.831,2.875-4.362,2.875-6.961C208.237,195.801,207.193,193.27,205.362,191.429z" fill="#008cb1"/>
	</g>
</g>
<g>
</g>
<g>
</g>
<g>
</g>
<g>
</g>
<g>
</g>
<g>
</g>
<g>
</g>
<g>
</g>
<g>
</g>
<g>
</g>
<g>
</g>
<g>
</g>
<g>
</g>
<g>
</g>
<g>
</g>
</svg>
