<?xml version="1.0" encoding="iso-8859-1"?>
<!-- Generator: Adobe Illustrator 17.1.0, SVG Export Plug-In . SVG Version: 6.00 Build 0)  -->
<!DOCTYPE svg PUBLIC "-//W3C//DTD SVG 1.1//EN" "http://www.w3.org/Graphics/SVG/1.1/DTD/svg11.dtd">
<svg xmlns="http://www.w3.org/2000/svg" xmlns:xlink="http://www.w3.org/1999/xlink" version="1.1" id="Capa_1" x="0px" y="0px" viewBox="0 0 434.467 434.467" style="enable-background:new 0 0 434.467 434.467;" xml:space="preserve" width="512px" height="512px">
<path d="M367.704,414.465h-18.194v-42.28c0-5.523-4.477-10-10-10h-32.849v-34.597c20.548-13.278,37.803-31.32,50.113-52.49  c13.69-23.541,20.926-50.455,20.926-77.833c0-27.328-7.211-54.2-20.854-77.71c-11.432-19.701-27.15-36.703-45.817-49.685l4.537-6.48  l2.14,1.499c1.746,1.223,3.746,1.81,5.727,1.81c3.152,0,6.255-1.487,8.2-4.265c3.168-4.524,2.068-10.76-2.456-13.927l-10.273-7.193  c-0.02-0.014-0.037-0.03-0.057-0.044L272.824,9.043c-0.014-0.01-0.029-0.017-0.043-0.027L262.49,1.81  c-4.524-3.169-10.76-2.068-13.927,2.456c-3.168,4.524-2.068,10.759,2.456,13.927l2.141,1.499l-19.524,27.883l-2.141-1.499  c-4.524-3.168-10.759-2.069-13.927,2.456c-3.168,4.524-2.068,10.759,2.456,13.927l2.141,1.499l-61.302,87.547  c-1.521,2.172-2.117,4.86-1.657,7.472s1.94,4.934,4.112,6.455l46.025,32.228c1.692,1.185,3.697,1.809,5.736,1.809  c0.578,0,1.159-0.05,1.736-0.152c2.612-0.46,4.934-1.94,6.455-4.112l46.608-66.563c22.441,15.46,36.063,41.017,36.063,68.624  c0,17.454-5.272,33.962-15.264,48.047h-42.372c-5.523,0-10,4.477-10,10v23.776c-5.142,0.978-10.386,1.484-15.671,1.484  c-26.342,0-50.391-12.088-65.965-32.379h54.151c5.523,0,10-4.477,10-10s-4.477-10-10-10h-72.054H83.428H66.763  c-5.523,0-10,4.477-10,10s4.477,10,10,10h9.384c9.975,28.6,28.497,54.172,52.744,72.601c27.146,20.632,59.561,31.538,93.743,31.538  c5.235,0,10.474-0.272,15.671-0.794v10.646H105.76c-5.523,0-10,4.477-10,10v42.28H77.566c-5.523,0-10,4.477-10,10s4.477,10,10,10  h28.146c0.016,0,0.032,0.002,0.048,0.002h233.751c0.016,0,0.032-0.002,0.048-0.002h28.146c5.523,0,10-4.477,10-10  S373.227,414.465,367.704,414.465z M269.542,31.163l29.642,20.756l-10.471,14.954c-0.005,0.007-0.01,0.013-0.015,0.019  l-9.038,12.909l-29.642-20.756L269.542,31.163z M212.623,175.541l-29.643-20.756l55.566-79.356l29.642,20.756L212.623,175.541z   M281.353,112.254l3.218-4.597l2.14,1.499c1.746,1.223,3.746,1.81,5.727,1.81c3.152,0,6.255-1.487,8.2-4.265  c3.168-4.524,2.068-10.759-2.456-13.927l-2.141-1.499l3.52-5.027c36.078,25.095,58.138,66.82,58.138,111.018  c0,41.238-19.183,80.292-51.039,105.724v-45.617c12.632-17.583,19.28-38.252,19.28-60.107  C325.941,163.081,309.105,131.429,281.353,112.254z M222.634,332.333c-54.99,0-104.645-33.99-125.126-84.139h35.233  c8.329,14.682,20.141,27.132,34.453,36.253c16.555,10.549,35.726,16.125,55.44,16.125c5.265,0,10.504-0.397,15.671-1.184v32.045  C233.12,332.031,227.876,332.333,222.634,332.333z M258.305,340.068v-53.074v-21.682h28.356v56.725v40.148h-28.356V340.068z   M115.76,382.185h132.545h48.356h32.849v32.28H115.76V382.185z" fill="#008cb1"/>
<g>
</g>
<g>
</g>
<g>
</g>
<g>
</g>
<g>
</g>
<g>
</g>
<g>
</g>
<g>
</g>
<g>
</g>
<g>
</g>
<g>
</g>
<g>
</g>
<g>
</g>
<g>
</g>
<g>
</g>
</svg>
