<?xml version="1.0" encoding="utf-8"?>
<!-- Generator: Adobe Illustrator 22.1.0, SVG Export Plug-In . SVG Version: 6.00 Build 0)  -->
<svg version="1.1" id="Capa_1" xmlns="http://www.w3.org/2000/svg" xmlns:xlink="http://www.w3.org/1999/xlink" x="0px" y="0px"
	 viewBox="0 0 512 512" style="enable-background:new 0 0 512 512;" xml:space="preserve">
<style type="text/css">
	.st0{fill:#008cb1;}
</style>
<g>
	<path fill="#008cb1" class="st0" d="M376,45h-65.9C305.4,19.4,282.9,0,256,0c-26.9,0-49.4,19.4-54.1,45H136c-16.5,0-30,13.5-30,30v280
		c0,27.6,22.4,50,50,50h69.1c3.2,9.9,11,17.7,20.9,20.9v52.3c0,18.6,15.1,33.7,33.7,33.7c18.6,0,33.7-15.1,33.7-33.7v-17
		c0-7.6,6.2-13.7,13.7-13.7c7.6,0,13.7,6.2,13.7,13.7V502c0,5.5,4.5,10,10,10s10-4.5,10-10v-40.8c0-18.6-15.1-33.7-33.7-33.7
		c-18.6,0-33.7,15.1-33.7,33.7v17c0,7.6-6.2,13.7-13.7,13.7c-7.6,0-13.7-6.2-13.7-13.7v-52.3c9.9-3.2,17.7-11,20.9-20.9H356
		c27.6,0,50-22.4,50-50V75C406,58.5,392.5,45,376,45L376,45z M386,355c0,16.5-13.5,30-30,30h-77.5c-5.5,0-10,4.5-10,10
		c0,6.9-5.6,12.5-12.5,12.5c-6.9,0-12.5-5.6-12.5-12.5c0-5.5-4.5-10-10-10H156c-16.5,0-30-13.5-30-30V75c0-5.5,4.5-10,10-10h75
		c5.5,0,10-4.5,10-10c0-19.3,15.7-35,35-35c19.3,0,35,15.7,35,35c0,5.5,4.5,10,10,10h75c5.5,0,10,4.5,10,10V355z"/>
	<path class="st0" d="M256,65c5.5,0,10-4.5,10-10s-4.5-10-10-10h0c-5.5,0-10,4.5-10,10S250.5,65,256,65z"/>
	<g>
		<path class="st0" d="M256,250.1c-1.9,0-3.8,1.1-9.7,7.3c-1.3,1.4-5.3,5.6-5.3,8.6c0,6,7.5,9.1,15,9.1s15-3.1,15-9.1
			c0-3-4-7.2-5.3-8.6C259.8,251.1,257.9,250.1,256,250.1z"/>
		<path class="st0" d="M351,153.7c-8.9,0-13.8-2.3-21.1-6.8c-9-5.5-15.5-8.2-26.4-8.2c-10.9,0-17.4,2.7-26.4,8.2
			c-7.4,4.5-12.2,6.8-21.1,6.8c-8.9,0-13.8-2.3-21.1-6.8c-9-5.5-15.5-8.2-26.4-8.2c-10.9,0-17.4,2.7-26.4,8.2
			c-7.4,4.5-12.2,6.8-21.1,6.8h-5V355h200V153.7H351z M256,198.7L256,198.7c5.5,0,10,4.5,10,10s-4.5,10-10,10s-10-4.5-10-10
			S250.5,198.7,256,198.7z M211.6,224.2c0-5.5,4.5-10,10-10h0c5.5,0,10,4.5,10,10c0,5.5-4.5,10-10,10S211.6,229.8,211.6,224.2z
			 M256,295.1c-20.3,0-35-12.2-35-29.1c0-11,7.8-19.3,10.8-22.4c7-7.4,13.7-13.5,24.2-13.5s17.2,6.1,24.2,13.5
			c3,3.1,10.8,11.4,10.8,22.4C291,282.8,276.3,295.1,256,295.1z M290.4,234.2c-5.5,0-10-4.5-10-10s4.5-10,10-10h0
			c5.5,0,10,4.5,10,10S296,234.2,290.4,234.2z"/>
		<path class="st0" d="M256,275.1c-7.5,0-15-3.1-15-9.1c0-3,4-7.2,5.3-8.6c5.9-6.2,7.8-7.3,9.7-7.3s3.8,1.1,9.7,7.3
			c1.3,1.4,5.3,5.6,5.3,8.6C271,271.9,263.5,275.1,256,275.1z"/>
	</g>
</g>
</svg>
