<?xml version="1.0" encoding="utf-8"?>
<!-- Generator: Adobe Illustrator 22.1.0, SVG Export Plug-In . SVG Version: 6.00 Build 0)  -->
<svg version="1.1" id="Capa_1" xmlns="http://www.w3.org/2000/svg" xmlns:xlink="http://www.w3.org/1999/xlink" x="0px" y="0px"
	 viewBox="0 0 608 530" style="enable-background:new 0 0 608 530;" xml:space="preserve">
<g>
	<g>
		<path fill="#008cb1" d="M490.4,179.9H356.7c-3.7,0-6.6-3-6.6-6.6V39.6c0-11.9-9.7-21.6-21.6-21.6H183.6c-11.9,0-21.6,9.7-21.6,21.6v133.6
			c0,3.7-3,6.6-6.6,6.6H93.7c-4.1,0-7.5,3.4-7.5,7.5c0,4.1,3.4,7.5,7.5,7.5h61.6c11.9,0,21.6-9.7,21.6-21.6V39.6
			c0-3.7,3-6.6,6.6-6.6h144.8c3.7,0,6.6,3,6.6,6.6v133.6c0,11.9,9.7,21.6,21.6,21.6h133.6c3.7,0,6.6,3,6.6,6.6v144.8
			c0,3.7-3,6.6-6.6,6.6H356.7c-11.9,0-21.6,9.7-21.6,21.6v25.7c0,4.1,3.4,7.5,7.5,7.5s7.5-3.4,7.5-7.5v-25.7c0-3.7,3-6.6,6.6-6.6
			h133.6c11.9,0,21.6-9.7,21.6-21.6V201.6C512,189.6,502.3,179.9,490.4,179.9L490.4,179.9z"/>
		<path fill="#008cb1" d="M342.6,427.8c-4.1,0-7.5,3.4-7.5,7.5v73c0,3.7-3,6.6-6.6,6.6H183.6c-3.7,0-6.6-3-6.6-6.6V374.7c0-11.9-9.7-21.6-21.6-21.6
			H21.6c-3.7,0-6.6-3-6.6-6.6V201.6c0-3.7,3-6.6,6.6-6.6h36.8c4.1,0,7.5-3.4,7.5-7.5c0-4.1-3.4-7.5-7.5-7.5H21.6
			C9.7,179.9,0,189.6,0,201.6v144.8c0,11.9,9.7,21.6,21.6,21.6h133.6c3.7,0,6.6,3,6.6,6.6v133.6c0,11.9,9.7,21.6,21.6,21.6h144.8
			c11.9,0,21.6-9.7,21.6-21.6v-73C350.1,431.2,346.7,427.8,342.6,427.8z"/>
		<path fill="#008cb1" d="M212.3,286.4c-18,6-29.7,23.4-28.4,42.4c1.4,20.5,17.8,37.2,38.3,38.8c6.9,0.5,13.8-0.6,20.1-3.4c8.8-3.8,18.8-3.8,27.6,0
			c5.2,2.3,11,3.5,16.8,3.5c21.6,0,40.2-17.4,41.6-38.9c1.3-19-10.4-36.4-28.4-42.4c-2.3-0.8-4-2.3-4.8-4.3
			c-6.4-16-21.7-26.4-38.9-26.4s-32.5,10.3-38.9,26.4C216.3,284.1,214.5,285.7,212.3,286.4L212.3,286.4z M231,287.7
			c4.1-10.3,13.9-16.9,25-16.9s20.9,6.6,25,16.9c2.4,6.1,7.5,10.8,14,12.9c11.5,3.8,19,15,18.2,27.2c-0.9,13.1-11.4,23.8-24.5,24.8
			c-4.5,0.4-8.8-0.4-12.9-2.1c-12.5-5.5-27.1-5.5-39.6,0c-4.1,1.8-8.4,2.5-12.9,2.1c-13.1-1-23.6-11.7-24.5-24.8
			c-0.8-12.2,6.7-23.4,18.2-27.2C223.5,298.5,228.6,293.8,231,287.7z"/>
		<path fill="#008cb1" d="M256,246.3c18.2,0,33-14.8,33-33c0-18.2-14.8-33-33-33c-18.2,0-33,14.8-33,33C223,231.5,237.8,246.3,256,246.3L256,246.3z
			 M256,195.2c10,0,18,8.1,18,18c0,10-8.1,18-18,18c-10,0-18-8.1-18-18C238,203.3,246,195.2,256,195.2L256,195.2z"/>
		<path fill="#008cb1" d="M179.4,222.3c-15.7,0-28.5,12.8-28.5,28.5c0,15.7,12.8,28.5,28.5,28.5c15.7,0,28.5-12.8,28.5-28.5
			C207.9,235,195.2,222.3,179.4,222.3z M179.4,264.3c-7.4,0-13.5-6.1-13.5-13.5c0-7.4,6.1-13.5,13.5-13.5c7.4,0,13.5,6.1,13.5,13.5
			S186.9,264.3,179.4,264.3z"/>
		<path fill="#008cb1" d="M361.1,250.8c0-15.7-12.8-28.5-28.5-28.5s-28.5,12.8-28.5,28.5c0,15.7,12.8,28.5,28.5,28.5S361.1,266.5,361.1,250.8
			L361.1,250.8z M319.1,250.8c0-7.4,6.1-13.5,13.5-13.5s13.5,6.1,13.5,13.5c0,7.4-6.1,13.5-13.5,13.5S319.1,258.2,319.1,250.8z"/>
	</g>
</g>
<g>
	<path fill="#008cb1" d="M386.2,130.9h28.4c2.8,0,5,0.6,6.5,1.7c1.5,1.2,2.2,2.7,2.2,4.7c0,1.8-0.6,3.3-1.8,4.5c-1.2,1.2-3,1.9-5.4,1.9h-40.1
		c-2.7,0-4.8-0.8-6.4-2.3c-1.5-1.5-2.3-3.3-2.3-5.3c0-1.3,0.5-3,1.5-5.2c1-2.2,2.1-3.9,3.2-5.1c4.8-5,9.2-9.3,13.1-12.9
		c3.9-3.6,6.7-5.9,8.3-7.1c3-2.1,5.5-4.2,7.4-6.3s3.5-4.3,4.5-6.5c1-2.2,1.6-4.4,1.6-6.6c0-2.3-0.6-4.4-1.7-6.2
		c-1.1-1.8-2.6-3.3-4.5-4.3c-1.9-1-4-1.5-6.2-1.5c-4.8,0-8.5,2.1-11.2,6.3c-0.4,0.5-1,2-1.8,4.5c-0.9,2.4-1.8,4.3-2.9,5.6
		c-1.1,1.3-2.6,2-4.7,2c-1.8,0-3.3-0.6-4.5-1.8c-1.2-1.2-1.8-2.8-1.8-4.9c0-2.5,0.6-5.1,1.7-7.8c1.1-2.7,2.8-5.2,5-7.4
		c2.2-2.2,5.1-4,8.5-5.4c3.4-1.4,7.5-2,12.1-2c5.6,0,10.3,0.9,14.2,2.6c2.5,1.2,4.8,2.8,6.7,4.8c1.9,2,3.4,4.4,4.5,7.1
		c1.1,2.7,1.6,5.4,1.6,8.3c0,4.5-1.1,8.6-3.3,12.3c-2.2,3.7-4.5,6.6-6.8,8.7c-2.3,2.1-6.2,5.4-11.7,9.8c-5.5,4.5-9.2,7.9-11.2,10.4
		C388,128.4,387.1,129.6,386.2,130.9z"/>
	<path fill="#008cb1" d="M466.7,136.9v-10.1h-27.3c-3.4,0-6-0.8-7.8-2.3c-1.7-1.6-2.6-3.7-2.6-6.4c0-0.7,0.1-1.4,0.4-2.1s0.6-1.5,1.1-2.2
		c0.5-0.8,1-1.5,1.6-2.3c0.5-0.7,1.2-1.6,2-2.7L463,70.2c1.9-2.5,3.4-4.4,4.7-5.5c1.2-1.1,2.7-1.7,4.4-1.7c5.5,0,8.3,3.2,8.3,9.5
		v42.2h2.3c2.8,0,5,0.4,6.7,1.1c1.7,0.8,2.5,2.4,2.5,5c0,2.1-0.7,3.6-2.1,4.6c-1.4,1-3.4,1.4-6.2,1.4h-3.3v10.1
		c0,2.8-0.6,4.9-1.9,6.2c-1.2,1.4-2.9,2-5,2c-2,0-3.7-0.7-4.9-2.1C467.3,141.7,466.7,139.6,466.7,136.9z M443.3,114.6h23.4V82.9
		L443.3,114.6z"/>
	<path fill="#008cb1" d="M522.7,73.7l-15.2,62.8c-0.5,2.1-1,3.7-1.3,4.9c-0.4,1.2-1,2.1-1.7,2.8s-1.9,1-3.4,1c-3.7,0-5.6-1.6-5.6-4.8
		c0-0.8,0.4-2.9,1.1-6.3l15.2-62.8c0.8-3.3,1.6-5.6,2.3-6.9c0.7-1.2,2.1-1.9,4.2-1.9c1.8,0,3.2,0.4,4.2,1.3c1,0.9,1.4,2.1,1.4,3.6
		C523.8,68.6,523.4,70.7,522.7,73.7z"/>
	<path fill="#008cb1" d="M542.6,64.7h36.3c3.5,0,6,0.5,7.6,1.6c1.6,1.1,2.3,2.9,2.3,5.4c0,1.5-0.9,3.5-2.8,6c-1.8,2.5-3.9,5.3-6.3,8.3
		c-2.3,3-4.8,6.8-7.2,11.3c-2.5,4.5-4.8,10-6.8,16.5c-0.9,2.9-1.5,5.2-1.9,7.1c-0.4,1.9-0.8,4.3-1.2,7.4c-0.4,3-0.8,5.3-1.1,6.9
		c-0.8,3.7-1.8,6.3-3.2,7.7c-1.4,1.4-3.3,2.2-5.6,2.2c-2.2,0-4-0.8-5.3-2.3c-1.3-1.5-2-3.8-2-6.8c0-2.3,0.5-5.5,1.5-9.5
		c1-4,2.6-8.8,4.8-14.4c2.2-5.6,5-11.3,8.3-17.2c3.3-5.9,7.3-11.7,11.8-17.5h-29.1c-3,0-5.3-0.6-6.8-1.7c-1.5-1.1-2.3-2.8-2.3-5.2
		c0-2.5,0.8-4.1,2.4-4.8C537.5,65.1,539.7,64.7,542.6,64.7z"/>
</g>
</svg>
