<svg id="Capa_1" enable-background="new 0 0 511.981 511.981" height="512" viewBox="0 0 511.981 511.981" width="512" xmlns="http://www.w3.org/2000/svg"><g><path fill="#008cb1" d="m510.144 163.238c-5.615-35.485-24.172-66.896-52.253-88.442-25.836-19.825-57.833-29.971-90.028-28.594-31.719 1.365-61.216 13.545-85.863 35.354-24.647-21.809-54.145-33.989-85.862-35.354-32.232-1.377-64.193 8.77-90.028 28.594-28.082 21.547-46.639 52.957-52.253 88.442-4.139 26.162-1.257 54.194 8.341 82.753h-52.198c-5.522 0-10 4.478-10 10s4.478 10 10 10h59.982c3.741 8.46 8.058 16.939 12.944 25.401 22.167 38.396 56.623 78.584 97.021 113.162 36.587 31.317 73.77 54.124 99.464 61.009.848.228 1.718.341 2.588.341s1.74-.113 2.588-.341c25.694-6.885 62.877-29.691 99.464-61.009 40.397-34.578 74.854-74.767 97.021-113.162 25.34-43.889 35.392-88.203 29.072-128.154zm-46.392 118.154c-21.063 36.482-53.986 74.826-92.706 107.969-32.646 27.943-66.402 49.185-89.046 56.138-22.644-6.953-56.4-28.195-89.047-56.14-38.719-33.142-71.643-71.485-92.706-107.968-3.006-5.207-5.741-10.341-8.221-15.401h28.224c.549.982 1.099 1.95 1.648 2.901 24.359 42.192 66.363 87.578 112.36 121.405 11.413 8.394 28.238 19.872 43.583 26.889 1.32.604 2.739.905 4.158.905s2.838-.302 4.158-.905c15.345-7.017 32.17-18.495 43.583-26.889 45.997-33.828 88.001-79.213 112.36-121.405 16.552-28.667 33.479-71.59 20.125-113.276-8.574-26.758-28.634-47.979-55.036-58.22-35.103-13.616-72.651-5.155-100.442 22.635l-24.747 24.75-24.748-24.748c-27.792-27.791-65.342-36.252-100.444-22.636-26.402 10.243-46.462 31.463-55.034 58.221-10.148 31.676-2.81 64.067 8.562 90.374h-26.95c-27.255-72.966-.542-128.133 34.899-155.328 19.459-14.932 45.307-24.756 72.666-24.756 28.181 0 57.963 10.432 83.979 36.447 3.906 3.904 10.236 3.904 14.143 0 51.272-51.273 117.142-42.005 156.645-11.691 40.967 31.436 70.272 100.25 18.034 190.729zm-144.921-15.401c4.313 14.442 17.719 25 33.545 25 19.299 0 35-15.701 35-35 0-19.3-15.701-35.001-35-35.001-15.826 0-29.232 10.558-33.545 25.001h-19.705l-18.605-43.911c-1.566-3.697-5.192-6.099-9.208-6.099s-7.642 2.401-9.208 6.099l-35.061 82.747-28.29-66.77c-1.566-3.697-5.192-6.099-9.208-6.099s-7.642 2.401-9.208 6.099l-11.836 27.934h-36.16c-11.77-24.091-20.87-55.091-11.521-84.272 6.722-20.979 22.475-37.628 43.221-45.676 8.575-3.326 17.347-4.955 26.031-4.955 19.161 0 37.887 7.936 53.037 23.087l31.819 31.819c1.876 1.875 4.419 2.929 7.071 2.929s5.195-1.054 7.071-2.929l31.819-31.82c22.018-22.017 51.575-28.795 79.067-18.131 20.745 8.047 36.499 24.695 43.222 45.676 11.122 34.716-3.866 72.005-18.398 97.174-23.047 39.92-63.006 83.02-106.89 115.294-7.901 5.811-22.431 16.001-35.892 22.806-13.461-6.805-27.99-16.995-35.892-22.806-41.293-30.369-79.111-70.324-102.634-108.195h31.652c4.016 0 7.641-2.401 9.208-6.099l5.212-12.302 28.29 66.77c1.566 3.697 5.192 6.099 9.208 6.099s7.642-2.401 9.208-6.099l35.061-82.747 11.981 28.279c1.566 3.697 5.192 6.099 9.208 6.099h26.33zm18.545-10c0-8.271 6.729-15.001 15-15.001s15 6.729 15 15.001-6.729 15-15 15-15-6.729-15-15z"/></g></svg>