<svg id="Capa_1" enable-background="new 0 0 512 512" height="512" viewBox="0 0 512 512" width="512" xmlns="http://www.w3.org/2000/svg"><g><path fill="#008cb1" d="m466.688 238.943c26.686-6.737 45.312-30.638 45.312-58.174v-88.769c0-11.046-8.954-20-20-20s-20 8.954-20 20v88.769c0 9.194-6.229 17.173-15.149 19.403-.081.02-61.195 16.113-61.195 16.113l-20.964-32.709 34.59-23.06c16.73-11.154 26.718-29.816 26.718-49.923v-90.593c0-11.046-8.954-20-20-20s-20 8.954-20 20v90.593c0 6.702-3.329 12.923-8.906 16.641l-33.99 22.66-6.564-10.242c-7.353-11.471-18.129-19.876-30.54-24.245v-23.407c0-9.251-2.108-18.019-5.864-25.852l32.006-32.006c7.811-7.811 7.811-20.474 0-28.284s-20.474-7.811-28.284 0l-32.006 32.006c-7.833-3.756-16.6-5.864-25.852-5.864s-18.019 2.108-25.852 5.864l-32.006-32.006c-7.811-7.811-20.474-7.811-28.284 0s-7.811 20.474 0 28.284l32.006 32.006c-3.756 7.833-5.864 16.601-5.864 25.852v23.407c-12.411 4.369-23.187 12.774-30.54 24.245l-6.564 10.241-33.991-22.66c-5.577-3.718-8.906-9.938-8.906-16.641v-90.592c0-11.046-8.954-20-20-20s-19.999 8.954-19.999 20v90.593c0 20.107 9.988 38.77 26.718 49.923l34.591 23.06-20.964 32.709s-61.114-16.093-61.195-16.113c-8.921-2.23-15.15-10.209-15.15-19.403v-88.769c0-11.046-8.954-20-20-20s-20 8.954-20 20v88.769c0 27.536 18.626 51.437 45.312 58.174l49.428 13.016c-6.864 13.81-11.896 28.419-15.008 43.492l-32.757 8.189c-14.677 3.669-27.329 12.658-35.625 25.311-8.295 12.652-11.494 27.838-9.007 42.762l13.929 83.575c1.817 10.897 12.118 18.252 23.016 16.44 10.896-1.816 18.256-12.121 16.44-23.016l-13.929-83.574c-1.702-10.213 4.833-20.18 14.877-22.691l19.419-4.854c2.966 96.673 82.524 174.407 179.905 174.407s176.939-77.734 179.905-174.408l19.419 4.854c10.045 2.511 16.58 12.479 14.877 22.691l-13.929 83.575c-1.816 10.896 5.544 21.2 16.44 23.016 10.895 1.816 21.2-5.545 23.016-16.44l13.929-83.575c2.487-14.923-.712-30.11-9.007-42.762s-20.947-21.641-35.625-25.311l-32.757-8.189c-3.112-15.073-8.144-29.683-15.008-43.492zm-190.688-146.943v20h-40v-20c0-11.028 8.972-20 20-20s20 8.972 20 20zm-20 380c-77.196 0-140-62.804-140-140 0-26.856 7.62-52.939 22.035-75.43l61.103-95.333c3.706-5.784 10.01-9.237 16.862-9.237h80c6.852 0 13.156 3.453 16.863 9.237l61.103 95.333c14.414 22.491 22.034 48.574 22.034 75.43 0 77.196-62.804 140-140 140z"/></g></svg>