<?xml version="1.0" encoding="utf-8"?>
<!-- Generator: Adobe Illustrator 22.1.0, SVG Export Plug-In . SVG Version: 6.00 Build 0)  -->
<svg version="1.1" id="Capa_1" xmlns="http://www.w3.org/2000/svg" xmlns:xlink="http://www.w3.org/1999/xlink" x="0px" y="0px"
	 viewBox="0 0 512 512" style="enable-background:new 0 0 512 512;" xml:space="preserve">
<style type="text/css">
	.st0{fill:#008cb1;}
</style>
<g>
	<g>
		<path class="st0" d="M77.1,190.4c19.1-26.1,42.4-53.9,78.7-72.6c-0.1-0.2-0.2-0.3-0.3-0.5C134.4,96.8,106.7,84,77.1,81.5
			c-16,34.1-16.2,73.8-0.2,108.4L77.1,190.4z"/>
		<path class="st0" d="M434.9,190.4c-19.1-26.1-42.4-53.9-78.7-72.6c0.1-0.2,0.2-0.3,0.3-0.5c21.1-20.5,48.8-33.3,78.4-35.8
			c16,34.1,16.2,73.8,0.2,108.4L434.9,190.4z"/>
		<path class="st0" d="M146.4,397.7c-15.2,0-27.5-12.3-27.5-27.5c0-15.2,18-34.3,27.5-45.2c9.5,10.9,27.5,30,27.5,45.2
			C173.9,385.3,161.6,397.7,146.4,397.7z"/>
	</g>
	<g>
		<path fill="#008cb1" class="st0" d="M504.8,279.1l-15.6-4.6l8.8-17.5c2.4-4.7,0.7-10.5-3.9-13.2c-6.1-3.5-11.9-8.7-17.6-14.9
			c0.3-0.5,0.5-0.9,0.8-1.4c17.8-30.7,26.2-65.7,24.3-101C500,92.2,488.6,59.1,469,30.9c-1.7-2.4-4.4-4-7.4-4.2
			c-59.4-5.1-117,18.7-155.3,63.8c-15.7-3-32.5-4.5-50.4-4.5c-17.9,0-34.6,1.5-50.4,4.5c-38.3-45.1-95.9-68.9-155.3-63.8
			c-3,0.3-5.7,1.8-7.4,4.2c-19.6,28.2-31,61.3-32.7,95.6c-1.8,35.3,6.6,70.2,24.3,101c0.3,0.5,0.5,0.9,0.8,1.4
			c-5.7,6.2-11.4,11.3-17.6,14.9c-4.6,2.7-6.3,8.4-3.9,13.2l8.8,17.5l-15.6,4.6c-5,1.5-8,6.6-6.9,11.7C13,350,44.9,399.8,92.3,434.7
			C137.9,468.3,194.5,486,256,486s118.1-17.7,163.7-51.3c47.5-35,79.3-84.7,92.1-143.9C512.9,285.6,509.9,280.6,504.8,279.1
			L504.8,279.1z M169.7,122.4c8.5-3.7,17.8-7,27.8-9.5c34.3,47,111.7,133.3,217.4,133.3c14.6,0,29.8-1.7,45.5-5.3
			c5,5.7,10.2,10.7,15.8,15l-7.9,15.7C376.5,285.2,252.4,269.3,169.7,122.4z M256,106h0.2c19.7,24.8,45.6,47.2,73.3,63.4
			c32.1,18.7,66.5,29.1,99.8,30.2c2.3,3.2,4.6,6.4,6.9,9.6c3.5,4.9,6.9,9.6,10.2,14.1c-107.2,19.1-188.8-64.7-227.1-114.8
			C230.6,106.9,242.8,106,256,106L256,106z M412.9,178.2c-53-7.2-99.1-38.9-129.1-70.8C349.2,114.3,386,145.4,412.9,178.2z
			 M455.2,46.3c32.5,49.6,35.4,113.6,7.8,165.9c-3.4-4.6-6.9-9.5-10.6-14.6c-17.4-24.3-37.1-51.8-67.3-73.7
			c-17.1-12.4-36-21.7-56.7-28C361.3,61.8,407.4,43.6,455.2,46.3z M56.8,46.3c47.8-2.7,94,15.5,126.8,49.6
			c-20.8,6.3-39.6,15.6-56.7,28c-30.2,21.9-49.9,49.4-67.3,73.7c-3.6,5.1-7.1,10-10.6,14.6C21.3,159.8,24.3,95.9,56.8,46.3z
			 M256,466c-116.6,0-207.5-66.6-234.1-170.5l18-5.4c2.8-0.8,5.2-2.9,6.3-5.6c1.2-2.7,1.1-5.8-0.3-8.5l-10.2-20.3
			c14.7-11.1,26.6-27.8,40-46.6c19-26.6,40.7-56.9,76.1-77.7c11.7,21.3,38.6,66.9,86.8,104.6c26.2,20.4,55.1,35.8,86.2,45.7
			c-0.6,1.3-0.9,2.7-0.9,4.2v10c0,5.5,4.5,10,10,10c5.5,0,10-4.5,10-10v-8.8c22.9,5.6,47.1,8.3,72.2,8.3c18.8,0,38.2-1.6,58-4.7
			l15.8,4.7C463.5,399.4,372.6,466,256,466L256,466z"/>
		<path class="st0" d="M178,276c-5.5,0-10,4.5-10,10v10c0,5.5,4.5,10,10,10s10-4.5,10-10v-10C188,280.5,183.5,276,178,276z"/>
		<path class="st0" d="M301,326.1c0-17.7-18.5-30.1-45-30.1s-45,12.4-45,30.1c0,15.6,14.9,33.9,35,38.7v0.3
			c-3.7,4.9-9.5,7.8-15.7,7.8c-5.5,0-10,4.5-10,10c0,5.5,4.5,10,10,10c9.5,0,18.6-3.5,25.7-9.4c7.1,6,16.1,9.4,25.7,9.4
			c5.5,0,10-4.5,10-10c0-5.5-4.5-10-10-10c-6.2,0-12-2.9-15.7-7.8v-0.3C286.1,360.1,301,341.7,301,326.1z M231,326.1
			c0-4.8,10.3-10.1,25-10.1c14.7,0,25,5.3,25,10.1c0,6.6-10.8,19.9-25,19.9C241.8,346,231,332.8,231,326.1L231,326.1z"/>
	</g>
</g>
</svg>
