<svg id="Capa_1" enable-background="new 0 0 512 512" height="512" viewBox="0 0 512 512" width="512" xmlns="http://www.w3.org/2000/svg"><g><path fill="#008cb1" d="m256 209.88c-99.252 0-180 80.748-180 180 0 55.14 44.86 100 100 100 32.676 0 61.741-15.755 80-40.066 18.259 24.311 47.324 40.066 80 40.066 55.14 0 100-44.86 100-100 0-99.252-80.748-180-180-180zm80 240c-33.084 0-60-26.916-60-60 0-11.046-8.954-20-20-20s-20 8.954-20 20c0 33.084-26.916 60-60 60s-60-26.916-60-60c0-77.196 62.804-140 140-140s140 62.804 140 140c0 33.084-26.916 60-60 60z"/><path fill="#008cb1" d="m178 182.12c33.645 0 60-35.14 60-80s-26.355-80-60-80-60 35.14-60 80 26.355 80 60 80zm0-120c8.155 0 20 15.582 20 40s-11.845 40-20 40-20-15.582-20-40 11.845-40 20-40z"/><path fill="#008cb1" d="m334 182.12c33.645 0 60-35.14 60-80s-26.355-80-60-80-60 35.14-60 80 26.355 80 60 80zm0-120c8.155 0 20 15.582 20 40s-11.845 40-20 40-20-15.582-20-40 11.845-40 20-40z"/><path fill="#008cb1" d="m120 204.839c0-44.86-26.355-80-60-80s-60 35.14-60 80 26.355 80 60 80 60-35.141 60-80zm-60 40c-8.155 0-20-15.582-20-40s11.845-40 20-40 20 15.582 20 40c0 24.417-11.845 40-20 40z"/><path fill="#008cb1" d="m452 124.839c-33.645 0-60 35.14-60 80s26.355 80 60 80 60-35.14 60-80-26.355-80-60-80zm0 120c-8.155 0-20-15.582-20-40s11.845-40 20-40 20 15.582 20 40c0 24.417-11.845 40-20 40z"/></g></svg>