<?xml version="1.0" encoding="iso-8859-1"?>
<!-- Generator: Adobe Illustrator 19.0.0, SVG Export Plug-In . SVG Version: 6.00 Build 0)  -->
<svg xmlns="http://www.w3.org/2000/svg" xmlns:xlink="http://www.w3.org/1999/xlink" version="1.1" id="Capa_1" x="0px" y="0px" viewBox="0 0 512 512" style="enable-background:new 0 0 512 512;" xml:space="preserve" width="512px" height="512px">
<g>
	<g>
		<path d="M191.875,64.125h-24.548V39.577c0-4.151-3.365-7.515-7.515-7.515H127.75c-4.15,0-7.515,3.364-7.515,7.515v24.548H95.687    c-4.15,0-7.515,3.364-7.515,7.515v32.063c0,4.151,3.365,7.515,7.515,7.515h24.548v24.548c0,4.151,3.365,7.515,7.515,7.515h32.063    c4.15,0,7.515-3.364,7.515-7.515v-24.548h24.548c4.15,0,7.515-3.364,7.515-7.515V71.64    C199.39,67.489,196.025,64.125,191.875,64.125z M184.36,96.188h-24.548c-4.15,0-7.515,3.364-7.515,7.515v24.548h-17.033v-24.548    c0-4.151-3.365-7.515-7.515-7.515h-24.548V79.155h24.548c4.15,0,7.515-3.364,7.515-7.515V47.092h17.033V71.64    c0,4.151,3.365,7.515,7.515,7.515h24.548V96.188z" fill="#008cb1"/>
	</g>
</g>
<g>
	<g>
		<path d="M485.209,290.271l-224.438-184.36c-2.773-2.275-6.767-2.275-9.54,0l-11.763,9.662V7.515c0-4.151-3.365-7.515-7.515-7.515    H55.609c-4.15,0-7.515,3.364-7.515,7.515v160.313c0,4.151,3.365,7.515,7.515,7.515h32.564v64.509l-61.381,50.419    c-2.466,2.026-3.387,5.492-2.253,8.475c1.096,2.886,3.937,4.847,7.024,4.847h56.611v200.892c0,4.151,3.365,7.515,7.515,7.515    h320.626c4.15,0,7.515-3.364,7.515-7.515V303.593h56.611c3.088,0,5.928-1.961,7.024-4.847    C488.595,295.764,487.675,292.297,485.209,290.271z M63.124,160.313V15.029h161.315v112.888l-39.464,32.417    c-0.148-0.009-0.296-0.022-0.447-0.022H63.124z M166.705,175.342l-63.503,52.164v-52.164H166.705z M320.626,496.971H191.374    v-88.673c0-35.635,28.992-64.626,64.626-64.626s64.626,28.992,64.626,64.626V496.971z M367.718,288.564    c-4.15,0-7.515,3.364-7.515,7.515c0,4.151,3.365,7.515,7.515,7.515h41.08v193.378h-73.143v-88.673    c0-43.923-35.734-79.656-79.656-79.656c-43.922,0-79.656,35.733-79.656,79.656v88.673h-73.143V303.593H332.65    c4.15,0,7.515-3.364,7.515-7.515c0-4.151-3.365-7.515-7.515-7.515H52.549L256,121.443l203.451,167.12H367.718z" fill="#008cb1"/>
	</g>
</g>
<g>
	<g>
		<path d="M256,208.407c-15.194,0-27.554,12.361-27.554,27.554c0,19.538,19.309,19.538,27.554,19.538s27.554,0,27.554-19.538    C283.554,220.768,271.194,208.407,256,208.407z M256,240.47c-12.524,0-12.524-1.602-12.524-4.509    c0-6.906,5.618-12.524,12.524-12.524s12.524,5.618,12.524,12.524C268.525,238.868,268.525,240.47,256,240.47z" fill="#008cb1"/>
	</g>
</g>
<g>
	<g>
		<circle cx="296.579" cy="207.405" r="7.515" fill="#008cb1"/>
	</g>
</g>
<g>
	<g>
		<circle cx="272.533" cy="191.374" r="7.515" fill="#008cb1"/>
	</g>
</g>
<g>
	<g>
		<circle cx="215.421" cy="207.405" r="7.515" fill="#008cb1"/>
	</g>
</g>
<g>
	<g>
		<circle cx="239.468" cy="191.374" r="7.515" fill="#008cb1"/>
	</g>
</g>
<g>
	<g>
		<path d="M296.078,408.798h-12.274l-21.793-29.057c-2.957-3.943-9.067-3.943-12.023,0l-21.793,29.057h-12.274    c-4.15,0-7.515,3.364-7.515,7.515v40.078c0,4.151,3.365,7.515,7.515,7.515h80.157c4.15,0,7.515-3.364,7.515-7.515v-40.078    C303.593,412.162,300.229,408.798,296.078,408.798z M256,396.775l9.018,12.023h-18.035L256,396.775z M288.564,448.877h-65.127    v-25.049h65.127V448.877z" fill="#008cb1"/>
	</g>
</g>
<g>
</g>
<g>
</g>
<g>
</g>
<g>
</g>
<g>
</g>
<g>
</g>
<g>
</g>
<g>
</g>
<g>
</g>
<g>
</g>
<g>
</g>
<g>
</g>
<g>
</g>
<g>
</g>
<g>
</g>
</svg>
