<?xml version="1.0" encoding="utf-8"?>
<!-- Generator: Adobe Illustrator 22.1.0, SVG Export Plug-In . SVG Version: 6.00 Build 0)  -->
<svg version="1.1" id="Capa_1" xmlns="http://www.w3.org/2000/svg" xmlns:xlink="http://www.w3.org/1999/xlink" x="0px" y="0px"
	 viewBox="0 0 512 512" style="enable-background:new 0 0 512 512;" xml:space="preserve">
<style type="text/css">
	.st0{fill:#008cb1;}
</style>
<path fill="#008cb1" class="st0" d="M509.6,220.9c-25.4-43.3-61.9-79.6-105.6-105c-45-26.1-96.5-40-149-40c-52.5,0-104,13.8-149,40
	c-43.7,25.4-80.2,61.7-105.6,105c-1.8,3.1-1.8,7,0,10.1c25.4,43.3,61.9,79.6,105.6,105c45,26.1,96.5,40,149,40
	c22.8,0,45.3-2.6,67.3-7.7c0.3,1.5,0.5,2.9,0.9,4.4c9.2,37.6,47.1,60.6,84.6,51.5c37.6-9.2,60.6-47.1,51.4-84.6
	c-2.9-11.8-8.6-22.2-16.3-30.6c26.6-21.8,49.2-48.2,66.6-77.9C511.5,227.9,511.5,224.1,509.6,220.9z M20.7,226
	c31.6-51.3,79.5-90.1,134.8-111.4c-30.6,27.4-49.9,67.2-49.9,111.4c0,44.2,19.3,84,49.9,111.4C100.1,316.1,52.3,277.3,20.7,226z
	 M125.5,226c0-71.4,58.1-129.5,129.5-129.5S384.5,154.6,384.5,226c0,23.4-6.2,45.3-17.1,64.2c-21.1,7.6-36.7,24.7-43.1,45.1
	c-20.1,12.8-43.9,20.2-69.4,20.2C183.6,355.5,125.5,297.4,125.5,226z M416,366h-15v15c0,5.5-4.5,10-10,10s-10-4.5-10-10v-15h-15
	c-4.7,0-8.7-3.3-9.7-7.7c-0.2-0.7-0.3-1.5-0.3-2.3c0-5.5,4.5-10,10-10h15v-15c0-2.6,1-5,2.7-6.8c1.5-1.6,3.5-2.7,5.7-3.1
	c0.5-0.1,1.1-0.1,1.6-0.1c5.5,0,10,4.5,10,10v6.8v8.2h15c5.5,0,10,4.5,10,10C426,361.5,421.5,366,416,366z M427.1,296
	c-10.5-6.3-22.6-9.8-35.2-9.9c8.1-18.4,12.6-38.7,12.6-60.1c0-44.2-19.3-84-49.9-111.4c55.3,21.3,103.1,60.1,134.8,111.4
	C472.7,253,451.5,276.6,427.1,296z"/>
<path fill="#008cb1" class="st0" d="M255,126c-34,20-56.9,57.3-56.9,100S221,306,255,326c34-20,56.9-57.3,56.9-100S289,146,255,126z M265,243.3V256
	c0,5.5-4.5,10-10,10s-10-4.5-10-10v-12.7c-6-3.5-10-9.9-10-17.3c0-7.4,4-13.8,10-17.3V196c0-5.5,4.5-10,10-10s10,4.5,10,10v12.7
	c6,3.5,10,9.9,10,17.3C275,233.4,271,239.8,265,243.3z"/>
</svg>
