<svg id="Capa_1" enable-background="new 0 0 512.002 512.002" height="512" viewBox="0 0 512.002 512.002" width="512" xmlns="http://www.w3.org/2000/svg"><g><path fill="#008cb1" d="m497.694 165.732c-11-6.046-27.756-4.828-38.55 12.138-.032.051-.064.102-.096.154l-40.124 65.667c-4.833-2.786-10.372-4.022-16.014-3.517-7.068.633-13.428 3.95-17.907 9.34-2.863 3.446-12.318 15.258-22.329 27.763-9.52 11.893-19.363 24.19-22.111 27.497-9.522 11.461-21.668 20.274-34.526 29.604-18.245 13.238-38.197 27.716-50.036 51.331-11.839-23.615-31.791-38.093-50.036-51.331-12.858-9.33-25.004-18.143-34.527-29.605-2.748-3.306-12.591-15.604-22.111-27.496-10.01-12.505-19.465-24.317-22.329-27.763-4.479-5.391-10.838-8.708-17.907-9.34-5.641-.505-11.181.732-16.014 3.517l-40.124-65.667c-.031-.052-.063-.103-.096-.154-10.792-16.966-27.549-18.186-38.55-12.138-13.033 7.164-17.897 23.154-11.313 37.192.015.032.03.063.045.095 2.811 5.833 9.65 22.151 17.57 41.047 11.082 26.44 24.874 59.347 36.561 85.054 15.226 33.493 22.055 42.904 48.714 67.137l35.965 32.691v3.053h-5.849c-5.523 0-10 4.477-10 10v60c0 5.523 4.477 10 10 10h239.999c5.523 0 10-4.477 10-10v-60c0-5.523-4.477-10-10-10h-5.849v-3.053l35.965-32.691c26.66-24.232 33.489-33.644 48.714-67.136 11.687-25.708 25.479-58.614 36.561-85.055 7.92-18.896 14.759-35.215 17.57-41.047.015-.032.03-.063.045-.095 6.587-14.038 1.724-30.027-11.311-37.192zm-339.118 251.393-39.239-35.667c-24.56-22.324-29.901-29.688-43.959-60.614-11.563-25.437-25.292-58.19-36.322-84.508-8.334-19.884-14.922-35.602-17.972-41.942-2.798-6.01.477-9.825 2.858-11.134 3.992-2.194 8.471-.221 11.996 5.276l44.602 72.996c-.818 5.352-.146 12.002 3.104 20.217 9.333 23.586 20.903 47.146 31.742 64.638 2.909 4.695 9.073 6.142 13.768 3.233s6.143-9.073 3.233-13.768c-10.242-16.529-21.23-38.932-30.146-61.463-3.811-9.631-1.279-11.759-.327-12.56 1.538-1.292 3.455-1.903 5.395-1.734 1.727.155 3.256.937 4.307 2.201 2.747 3.306 12.584 15.595 22.098 27.48 10.017 12.513 19.478 24.333 22.341 27.779 11.127 13.393 24.872 23.366 38.165 33.011 25.761 18.693 48.023 34.848 51.781 72.365v9.07h-84.15v-7.477c-.001-2.817-1.189-5.504-3.275-7.399zm-12.575 34.876h100v40h-100zm220 40.001h-100v-40h100zm124.915-297.606c-3.05 6.342-9.637 22.059-17.97 41.939-11.031 26.318-24.759 59.072-36.322 84.509-14.059 30.925-19.399 38.289-43.959 60.613l-39.239 35.667c-2.085 1.896-3.274 4.582-3.274 7.4v7.477h-84.151v-9.07c3.759-37.518 26.02-53.673 51.782-72.365 13.292-9.645 27.037-19.618 38.164-33.01 2.864-3.447 12.325-15.267 22.342-27.78 9.514-11.885 19.351-24.175 22.098-27.48 1.051-1.265 2.581-2.046 4.307-2.201 1.945-.176 3.858.442 5.395 1.733.953.801 3.485 2.929-.326 12.56-8.917 22.534-19.905 44.936-30.146 61.463-2.909 4.695-1.461 10.859 3.233 13.768 4.693 2.907 10.858 1.461 13.768-3.233 10.838-17.491 22.408-41.051 31.742-64.639 3.251-8.214 3.923-14.864 3.104-20.216l44.602-72.996c3.525-5.497 8.004-7.47 11.997-5.276 2.379 1.309 5.654 5.126 2.853 11.137z"/><path fill="#008cb1" d="m256.002 90.509c20.094 0 36.441-20.301 36.441-45.254s-16.348-45.255-36.441-45.255-36.441 20.301-36.441 45.255 16.347 45.254 36.441 45.254zm0-70.509c8.758 0 16.441 11.801 16.441 25.255 0 13.453-7.683 25.254-16.441 25.254s-16.441-11.801-16.441-25.254c0-13.454 7.682-25.255 16.441-25.255z"/><path fill="#008cb1" d="m135.544 128.392c6.634 5.208 14.254 7.942 21.741 7.942 2.617 0 5.218-.334 7.754-1.014 9.792-2.624 17.839-10.186 22.079-20.747 3.901-9.719 4.401-21.225 1.407-32.396-2.993-11.173-9.179-20.887-17.417-27.354-8.953-7.027-19.703-9.551-29.494-6.928-9.792 2.624-17.84 10.186-22.08 20.747-3.901 9.719-4.401 21.225-1.407 32.397s9.179 20.887 17.417 27.353zm2.551-52.3c1.1-2.74 3.692-7.538 8.694-8.878.899-.241 1.787-.346 2.651-.346 3.945 0 7.412 2.192 9.317 3.688 4.786 3.757 8.594 9.879 10.448 16.797 1.854 6.917 1.617 14.124-.649 19.77-1.1 2.741-3.692 7.539-8.695 8.879-5.001 1.339-9.646-1.518-11.969-3.342-4.786-3.757-8.594-9.879-10.448-16.797-1.852-6.918-1.615-14.124.651-19.771z"/><path fill="#008cb1" d="m346.963 135.32c2.537.68 5.137 1.014 7.754 1.014 7.486 0 15.107-2.735 21.741-7.942 8.238-6.466 14.423-16.18 17.417-27.353s2.494-22.678-1.407-32.397c-4.239-10.562-12.287-18.124-22.079-20.747-9.792-2.624-20.543-.099-29.495 6.928-8.238 6.466-14.424 16.181-17.417 27.353-2.994 11.172-2.494 22.678 1.407 32.397 4.239 10.562 12.287 18.124 22.079 20.747zm-4.167-47.967c1.854-6.918 5.662-13.04 10.448-16.797 1.905-1.496 5.372-3.688 9.318-3.688.865 0 1.752.105 2.651.346 5.002 1.34 7.594 6.138 8.694 8.878 2.266 5.646 2.503 12.853.649 19.771s-5.662 13.041-10.448 16.797c-2.323 1.824-6.968 4.681-11.97 3.342-5.002-1.34-7.594-6.138-8.694-8.879-2.266-5.646-2.502-12.852-.648-19.77z"/><path fill="#008cb1" d="m158.828 210.781c0 45.161 40.867 77.939 97.173 77.939s97.174-32.778 97.174-77.939c0-25.667-16.433-46.58-30.749-61.931-21.912-23.497-39.503-40.128-66.425-40.128-26.921 0-44.512 16.632-66.424 40.128-14.316 15.351-30.749 36.263-30.749 61.931zm45.376-48.291c22.208-23.814 34.313-33.769 51.797-33.769s29.59 9.955 51.798 33.769c11.814 12.669 25.376 29.607 25.376 48.291 0 20.927-11.692 34.09-21.5 41.448-14.177 10.634-33.949 16.491-55.673 16.491s-41.496-5.857-55.673-16.491c-9.809-7.358-21.5-20.521-21.5-41.448-.001-18.685 13.56-35.622 25.375-48.291z"/><path fill="#008cb1" d="m231.002 208.721h15v15c0 5.523 4.477 10 10 10s10-4.477 10-10v-15h15c5.523 0 10-4.477 10-10s-4.477-10-10-10h-15v-15c0-5.523-4.477-10-10-10s-10 4.477-10 10v15h-15c-5.523 0-10 4.477-10 10s4.477 10 10 10z"/></g></svg>