<svg id="Capa_1" enable-background="new 0 0 511.998 511.998" height="512" viewBox="0 0 511.998 511.998" width="512" xmlns="http://www.w3.org/2000/svg"><g><g><path fill="#008cb1" d="m397.126 44.572h-46.698v-7.119c0-6.895-5.609-12.503-12.504-12.503h-8.722v-12.446c.001-6.895-5.608-12.504-12.503-12.504h-121.4c-6.895 0-12.503 5.609-12.503 12.504v12.446h-8.722c-6.895 0-12.504 5.609-12.504 12.503v7.119h-46.698c-13.363 0-24.234 10.872-24.234 24.234v293.52c0 4.142 3.358 7.5 7.5 7.5s7.5-3.358 7.5-7.5v-293.519c0-5.092 4.142-9.234 9.234-9.234h13.062v401.067c0 11.195 9.107 20.302 20.302 20.302h215.525c11.195 0 20.302-9.107 20.302-20.302v-401.068h13.062c5.092 0 9.234 4.143 9.234 9.234v418.958c0 5.092-4.142 9.234-9.234 9.234h-282.253c-5.092 0-9.234-4.142-9.234-9.234v-91.028c0-4.142-3.358-7.5-7.5-7.5s-7.5 3.358-7.5 7.5v91.028c0 13.363 10.871 24.234 24.234 24.234h282.255c13.363 0 24.234-10.871 24.234-24.234v-418.957c-.001-13.363-10.872-24.235-24.235-24.235zm-28.062 416.067c0 2.924-2.378 5.302-5.302 5.302h-215.526c-2.924 0-5.302-2.378-5.302-5.302v-401.067h18.635v7.119c0 6.895 5.609 12.503 12.504 12.503h92.33c4.142 0 7.5-3.358 7.5-7.5s-3.358-7.5-7.5-7.5h-89.833v-24.244h6.304c8.228 0 14.922-6.694 14.922-14.921v-10.029h116.407v10.029c0 8.228 6.694 14.921 14.922 14.921h6.304v24.245h-33.93c-4.142 0-7.5 3.358-7.5 7.5s3.358 7.5 7.5 7.5h36.426c6.895 0 12.504-5.609 12.504-12.503v-7.119h18.635z"/><path fill="#008cb1" d="m207.679 132.072c0-12.337-10.415-22.374-23.216-22.374 0 0-15.209 0-15.228 0-4.142 0-7.5 3.358-7.5 7.5v57.233c0 4.142 3.358 7.5 7.5 7.5s7.5-3.358 7.5-7.5v-15.285s17.814 20.24 17.814 20.24c2.703 3.072 7.504 3.386 10.585.675 3.109-2.737 3.412-7.476.675-10.585l-14.186-16.118c9.308-2.916 16.056-11.356 16.056-21.286zm-23.217 7.374c-1.795 0-4.79.012-7.645.025-.014-2.778-.026-5.671-.026-7.4 0-1.473-.007-4.459-.015-7.374h7.686c4.454 0 8.216 3.377 8.216 7.374.001 3.998-3.762 7.375-8.216 7.375z"/><path fill="#008cb1" d="m222.257 203.957 11.564-15.336 12.247 16.138c2.425 3.196 7.31 3.867 10.508 1.44 3.299-2.504 3.944-7.208 1.44-10.508l-14.811-19.516 12.337-16.362c2.494-3.308 1.834-8.01-1.473-10.504-3.309-2.496-8.01-1.834-10.504 1.473l-9.784 12.976-9.862-12.995c-2.504-3.299-7.209-3.944-10.508-1.44s-3.944 7.208-1.44 10.508l12.426 16.373-14.117 18.722c-2.494 3.308-1.834 8.01 1.473 10.504 3.208 2.418 8.016 1.825 10.504-1.473z"/><path fill="#008cb1" d="m187.752 235.809h-18.223c-4.142 0-7.5 3.358-7.5 7.5s3.358 7.5 7.5 7.5h18.223c4.142 0 7.5-3.358 7.5-7.5s-3.358-7.5-7.5-7.5z"/><path fill="#008cb1" d="m342.763 235.809h-119.821c-4.142 0-7.5 3.358-7.5 7.5s3.358 7.5 7.5 7.5h119.821c4.142 0 7.5-3.358 7.5-7.5s-3.358-7.5-7.5-7.5z"/><path fill="#008cb1" d="m187.752 272.145h-18.223c-4.142 0-7.5 3.358-7.5 7.5s3.358 7.5 7.5 7.5h18.223c4.142 0 7.5-3.358 7.5-7.5s-3.358-7.5-7.5-7.5z"/><path fill="#008cb1" d="m342.763 272.145h-119.821c-4.142 0-7.5 3.358-7.5 7.5s3.358 7.5 7.5 7.5h119.821c4.142 0 7.5-3.358 7.5-7.5s-3.358-7.5-7.5-7.5z"/><path fill="#008cb1" d="m187.752 308.481h-18.223c-4.142 0-7.5 3.358-7.5 7.5s3.358 7.5 7.5 7.5h18.223c4.142 0 7.5-3.358 7.5-7.5s-3.358-7.5-7.5-7.5z"/><path fill="#008cb1" d="m342.763 308.481h-119.821c-4.142 0-7.5 3.358-7.5 7.5s3.358 7.5 7.5 7.5h119.821c4.142 0 7.5-3.358 7.5-7.5s-3.358-7.5-7.5-7.5z"/><path fill="#008cb1" d="m187.752 344.817h-18.223c-4.142 0-7.5 3.358-7.5 7.5s3.358 7.5 7.5 7.5h18.223c4.142 0 7.5-3.358 7.5-7.5s-3.358-7.5-7.5-7.5z"/><path fill="#008cb1" d="m342.763 344.817h-119.821c-4.142 0-7.5 3.358-7.5 7.5s3.358 7.5 7.5 7.5h119.821c4.142 0 7.5-3.358 7.5-7.5s-3.358-7.5-7.5-7.5z"/><path fill="#008cb1" d="m332.848 413.194c-1.007.906-2.521 1.59-4.378 1.978-.566.118-.873.12-.995.114-2.146-1.467-3.669-4.298-5.564-6.113-4.686-4.488-11.174-5.303-16.971-2.392-.198-.987-.413-1.998-.713-2.996-1.089-3.625-3.356-11.168-11.006-12.959-7.127-1.671-13.339 3.132-15.788 8.74-.87 1.994-4.356 10.567-5.323 12.719-.803-5.228-1.281-10.242-1.602-14.073-.395-4.714-1.351-10.123-5.454-14.497-2.771-2.955-6.555-4.616-10.652-4.678-4.139-.054-8.171 1.587-11.095 4.524-2.492 2.504-4.187 5.771-5.18 9.985-.953 4.043-1.438 8.16-2.232 12.231-.66 3.383-1.564 8.016-3.184 9.961-.898 1.078-2.154 1.583-2.595 1.442-3.949-1.259-8.166.924-9.421 4.872-1.256 3.947.925 8.165 4.872 9.421 6.512 2.075 13.84-.335 18.67-6.134 4.081-4.899 5.356-11.436 6.381-16.689.755-3.869 1.204-7.821 2.11-11.66.454-1.926.999-2.632 1.212-2.846.089-.09.178-.106.229-.107.919 1.058 1.228 3.449 1.393 5.427.544 6.498 1.517 16.186 3.68 25.266 1.51 6.333 5.515 10.327 10.715 10.684 7.693.532 10.362-6.262 13.396-11.963 2.139-4.02 3.839-8.202 5.483-12.247.381-.938.752-1.851 1.123-2.747 1.086 4.393 1.623 8.908 5.011 12.27 2.622 2.601 8.204 6.04 16.124-.164.246-.192.454-.317.61-.395.738.729 1.431 1.562 2.161 2.441 2.898 3.486 7.75 9.323 17.675 7.246 4.446-.929 8.368-2.834 11.341-5.508 3.079-2.771 3.33-7.513.56-10.592-2.772-3.081-7.514-3.332-10.593-.561z"/></g></g></svg>