<?xml version="1.0" encoding="iso-8859-1"?>
<!-- Generator: Adobe Illustrator 19.0.0, SVG Export Plug-In . SVG Version: 6.00 Build 0)  -->
<svg xmlns="http://www.w3.org/2000/svg" xmlns:xlink="http://www.w3.org/1999/xlink" version="1.1" id="Layer_1" x="0px" y="0px" viewBox="0 0 511.999 511.999" style="enable-background:new 0 0 511.999 511.999;" xml:space="preserve" width="512px" height="512px">
<g>
	<g>
		<path d="M474.487,159.399c-20.684,0-37.513,16.828-37.513,37.513v45.958c-5.116-2.542-10.784-3.895-16.664-3.895    c-10.02,0-19.44,3.902-26.525,10.988l-96.493,96.493c-17.508,17.508-27.15,40.785-27.15,65.546v89.95    c0,5.522,4.477,9.998,9.998,9.998h34.151c5.521,0,9.998-4.476,9.998-9.998c0-5.522-4.477-9.998-9.998-9.998h-24.153v-79.952    c0-19.419,7.562-37.676,21.294-51.406l96.493-96.494c3.308-3.308,7.706-5.13,12.386-5.13s9.077,1.822,12.386,5.131    c2.041,2.041,3.685,4.404,4.278,7.042c0.537,2.386,0.864,6.407,0.259,9.776c-0.758,2.914-2.259,5.674-4.538,7.952l-96.493,96.493    c-7.114,7.115-11.032,16.574-11.032,26.635c0,5.522,4.477,9.998,9.998,9.998s9.998-4.476,9.998-9.998    c0-4.72,1.839-9.158,5.176-12.496l96.493-96.493c9.316-9.317,12.689-22.355,10.135-34.374v-71.727    c0-9.658,7.857-17.517,17.517-17.517c9.659,0,17.517,7.857,17.517,17.517v81.776c0,21.728-5.487,43.304-15.869,62.394    l-82.051,150.872h-22.013c-5.521,0-9.998,4.476-9.998,9.998c0,5.522,4.477,9.998,9.998,9.998h27.957    c3.663,0,7.033-2.004,8.783-5.222l84.888-156.095c11.971-22.014,18.298-46.892,18.298-71.946v-81.776    C512,176.227,495.172,159.399,474.487,159.399z" fill="#008cb1"/>
	</g>
</g>
<g>
	<g>
		<path d="M342.696,491.953h-0.144c-5.521,0-9.998,4.476-9.998,9.998c0,5.522,4.477,9.998,9.998,9.998h0.144    c5.521,0,9.998-4.476,9.998-9.998C352.694,496.429,348.217,491.953,342.696,491.953z" fill="#008cb1"/>
	</g>
</g>
<g>
	<g>
		<path d="M214.706,346.454l-96.493-96.492c-7.085-7.086-16.505-10.989-26.525-10.989c-5.88,0-11.548,1.354-16.664,3.895v-45.958    c0-20.684-16.828-37.513-37.513-37.513C16.827,159.398,0,176.227,0,196.911v81.776c0,25.055,6.328,49.933,18.298,71.946    l84.888,156.095c1.751,3.218,5.12,5.222,8.783,5.222h27.957c5.521,0,9.998-4.476,9.998-9.998c0-5.522-4.477-9.998-9.998-9.998    h-22.013L35.865,341.079c-10.382-19.09-15.869-40.665-15.869-62.393v-81.776c0-9.658,7.857-17.517,17.517-17.517    s17.517,7.857,17.517,17.517v71.727c-2.553,12.02,0.818,25.057,10.135,34.374l96.494,96.492c3.337,3.337,5.175,7.774,5.175,12.496    c0,5.522,4.477,9.998,9.998,9.998s9.998-4.476,9.998-9.998c0-10.062-3.918-19.521-11.032-26.636l-96.495-96.491    c-6.83-6.83-6.83-17.943,0-24.772c3.308-3.308,7.707-5.13,12.386-5.13s9.077,1.822,12.386,5.131l96.493,96.493    c13.731,13.73,21.294,31.987,21.294,51.406v79.952h-24.152c-5.521,0-9.998,4.476-9.998,9.998c0,5.522,4.477,9.998,9.998,9.998    h34.15c5.521,0,9.998-4.476,9.998-9.998v-89.95C241.856,387.239,232.214,363.962,214.706,346.454z" fill="#008cb1"/>
	</g>
</g>
<g>
	<g>
		<path d="M169.447,491.953h-0.144c-5.521,0-9.998,4.476-9.998,9.998c0,5.522,4.477,9.998,9.998,9.998h0.144    c5.522,0,9.998-4.476,9.998-9.998C179.445,496.429,174.968,491.953,169.447,491.953z" fill="#008cb1"/>
	</g>
</g>
<g>
	<g>
		<path d="M318.469,0.049c-30.151,0-44.715,19.454-54.353,32.327c-2.513,3.355-6.219,8.306-8.166,9.535    c-1.948-1.229-5.654-6.18-8.166-9.535c-9.637-12.872-24.202-32.327-54.353-32.327c-38.882,0-70.517,31.634-70.517,70.517    c0,18.728,2.093,34.621,29.176,68.737c10.34,13.023,15.688,39.177,20.407,62.253c3.137,15.338,6.1,29.825,10.427,41.032    c6.03,15.618,14.807,23.536,26.086,23.536c22.593,0,30.414-28.132,37.314-52.952c2.425-8.719,6.292-22.631,9.628-27.492    c3.336,4.861,7.204,18.772,9.628,27.492c6.9,24.82,14.72,52.952,37.314,52.952c11.279,0,20.056-7.919,26.084-23.536    c4.327-11.207,7.29-25.694,10.427-41.032c4.719-23.076,10.067-49.229,20.407-62.253c27.084-34.115,29.176-50.008,29.176-68.737    C388.986,31.683,357.352,0.049,318.469,0.049z M344.151,126.869c-13.311,16.768-18.916,44.174-24.337,70.679    c-2.964,14.496-5.764,28.188-9.489,37.837c-3.058,7.92-5.845,10.743-7.432,10.743c-7.399,0-14.066-23.981-18.049-38.311    c-6.177-22.225-12.013-43.216-28.892-43.216s-22.716,20.991-28.89,43.216c-3.984,14.328-10.652,38.311-18.049,38.311    c-1.588,0-4.374-2.822-7.433-10.743c-3.724-9.648-6.525-23.34-9.489-37.837c-5.421-26.505-11.027-53.911-24.337-70.679    c-24.841-31.29-24.841-42.882-24.841-56.303c0-27.858,22.664-50.521,50.521-50.521c20.142,0,29.396,12.361,38.347,24.315    c6.515,8.701,13.25,17.699,24.173,17.699c10.923,0,17.659-8.997,24.173-17.699c8.95-11.955,18.204-24.315,38.346-24.315    c27.858,0,50.521,22.664,50.521,50.521C368.992,83.987,368.992,95.578,344.151,126.869z" fill="#008cb1"/>
	</g>
</g>
<g>
	<g>
		<path d="M462.41,68.524h-4.499v-4.499c0-5.522-4.477-9.998-9.998-9.998s-9.998,4.476-9.998,9.998v4.499h-4.499    c-5.521,0-9.998,4.476-9.998,9.998c0,5.522,4.477,9.998,9.998,9.998h4.499v4.499c0,5.522,4.477,9.998,9.998,9.998    s9.998-4.476,9.998-9.998V88.52h4.499c5.521,0,9.998-4.476,9.998-9.998C472.408,73,467.931,68.524,462.41,68.524z" fill="#008cb1"/>
	</g>
</g>
<g>
	<g>
		<path d="M127.975,162.919h-4.499v-4.499c0-5.522-4.477-9.998-9.998-9.998s-9.998,4.476-9.998,9.998v4.499h-4.499    c-5.521,0-9.998,4.476-9.998,9.998s4.477,9.998,9.998,9.998h4.499v4.499c0,5.522,4.477,9.998,9.998,9.998s9.998-4.476,9.998-9.998    v-4.499h4.499c5.521,0,9.998-4.476,9.998-9.998S133.496,162.919,127.975,162.919z" fill="#008cb1"/>
	</g>
</g>
<g>
</g>
<g>
</g>
<g>
</g>
<g>
</g>
<g>
</g>
<g>
</g>
<g>
</g>
<g>
</g>
<g>
</g>
<g>
</g>
<g>
</g>
<g>
</g>
<g>
</g>
<g>
</g>
<g>
</g>
</svg>
