<?xml version="1.0" encoding="iso-8859-1"?>
<!-- Generator: Adobe Illustrator 19.0.0, SVG Export Plug-In . SVG Version: 6.00 Build 0)  -->
<svg xmlns="http://www.w3.org/2000/svg" xmlns:xlink="http://www.w3.org/1999/xlink" version="1.1" id="Layer_1" x="0px" y="0px" viewBox="0 0 512 512" style="enable-background:new 0 0 512 512;" xml:space="preserve" width="512px" height="512px">
<g>
	<g>
		<path d="M301.995,207.875c-6.942-6.088-15.693-11.516-26.08-16.201c7.454-7.719,11.646-16.548,11.646-26    c0-23.93-27.131-44.55-68.13-52.342c0.263-2.179,0.405-4.385,0.405-6.608c0-19.776-10.652-38.225-27.797-48.148    c-2.328-1.348-5.198-1.35-7.529,0c-10.226,5.919-18.183,14.793-22.932,25.402c-10.749-4.074-22.697-4.817-34.135-1.763    c-2.6,0.692-4.63,2.723-5.323,5.323c-2.916,10.926-2.365,22.318,1.24,32.686c-27.192,10.252-43.203,26.932-43.203,45.451    c0,9.454,4.193,18.285,11.65,26.005c-27.932,12.608-43.712,30.525-43.712,50.144c0,15.801,10.277,30.229,27.94,41.664    c-19.638,5.375-36.33,12.205-48.84,20.053C4.717,317.64,0,332.247,0,342.019c0,39.883,71.71,63.854,142.78,69.919    c0.217,0.019,0.434,0.027,0.647,0.027c3.861,0,7.145-2.958,7.479-6.875c0.354-4.135-2.713-7.773-6.848-8.126    c-83.807-7.152-129.028-33.647-129.028-54.944c0-18.42,31.416-37.155,80.039-47.729c0.401-0.087,0.782-0.212,1.151-0.358    c19.573,8.113,44.085,13.504,71.594,15.07c0.145,0.008,0.29,0.012,0.434,0.012c3.955,0,7.268-3.089,7.496-7.088    c0.235-4.143-2.933-7.694-7.077-7.93c-29.815-1.696-57.177-8.38-77.047-18.821c-18.376-9.657-28.497-21.502-28.497-33.353    c0-14.662,15.706-29.322,42.153-39.489c18.874,11.675,46.852,18.949,78.582,18.949c31.731,0,59.709-7.274,78.583-18.949    c12.163,4.678,22.41,10.497,29.644,16.84c3.292,2.888,8.488,2.282,11.05-1.255C305.378,214.823,304.866,210.393,301.995,207.875z     M188.27,74.05c10.297,7.6,16.537,19.751,16.537,32.675c0,8.611-2.786,16.867-7.681,23.674c-1.271-12.592-6.8-24.614-15.98-33.793    c-1.979-1.98-4.094-3.782-6.315-5.417C177.66,84.354,182.289,78.444,188.27,74.05z M135.726,95.819    c12.654-1.908,25.654,2.275,34.793,11.413c9.138,9.137,13.318,22.138,11.412,34.792c-12.652,1.909-25.654-2.275-34.793-11.413    C138,121.475,133.82,108.473,135.726,95.819z M248.513,192.961c-17.144,8.572-40.105,13.293-64.654,13.293    c-24.549,0-47.51-4.721-64.654-13.293c-15.265-7.632-24.019-17.578-24.019-27.286c0-12.118,13.3-24.148,35.035-31.971    c1.855,2.67,3.951,5.197,6.289,7.536c10.536,10.537,24.813,16.264,39.4,16.264c2.765,0,5.53-0.207,8.264-0.618    c2.55-0.384,5.614-0.705,7.876-2.019c10.75-6.225,18.945-15.804,23.561-26.959c33.24,6.115,56.92,21.653,56.92,37.768    C272.532,175.383,263.778,185.329,248.513,192.961z" fill="#008cb1"/>
	</g>
</g>
<g>
	<g>
		<path d="M507.747,321.351c-19.218-9.258-39.985-13.725-60.659-13.48c0.219-20.894-4.396-41.734-13.491-60.614    c-1.342-2.782-4.223-4.455-7.33-4.233c-20.882,1.562-41.2,7.972-59.17,18.584c-10.121-17.979-24.351-33.688-41.939-45.676    c-2.554-1.739-5.912-1.739-8.466,0c-17.61,12.003-31.853,27.738-41.977,45.745c-17.997-10.655-38.355-17.087-59.286-18.653    c-3.086-0.228-5.99,1.449-7.33,4.233c-9.096,18.881-13.711,39.721-13.491,60.613c-20.674-0.245-41.441,4.222-60.659,13.481    c-2.783,1.341-4.463,4.249-4.233,7.33c3.359,44.881,28.599,85.091,67.521,107.563c20.955,12.098,44.376,18.19,67.865,18.19    c18.961-0.001,37.968-3.976,55.747-11.965c17.781,7.991,36.783,11.965,55.747,11.965c23.487-0.001,46.912-6.094,67.865-18.19    c38.922-22.472,64.162-62.682,67.521-107.563C512.209,325.6,510.53,322.692,507.747,321.351z M422.212,258.511    c6.821,15.879,10.189,33.123,9.839,50.373c-16.453,2.033-32.591,7.081-47.567,15.127c-0.522-17.037-4.239-33.579-10.736-48.876    C388.495,266.23,405.072,260.539,422.212,258.511z M219.483,258.511c17.189,2.033,33.808,7.75,48.586,16.697    c-6.489,15.303-10.194,31.848-10.706,48.888c-15.02-8.094-31.211-13.172-47.719-15.212    C209.294,291.634,212.66,274.39,219.483,258.511z M204.75,423.229c-33.112-19.117-55.09-52.671-59.549-90.493    c34.985-15.048,75.035-12.793,108.143,6.323c1.58,0.913,3.136,1.871,4.661,2.845c3.568,35.205,20.755,67.628,47.921,90.381    C272.668,444.217,235.681,441.088,204.75,423.229z M436.944,423.229c-30.903,17.841-67.85,20.98-101.08,9.089    c11.36-9.53,21.224-20.941,28.909-33.544c2.16-3.544,1.04-8.168-2.503-10.329c-3.545-2.159-8.167-1.04-10.329,2.503    c-8.008,13.132-18.667,24.819-31.021,34.055c-30.522-22.773-48.593-58.586-48.593-96.816c0-38.233,18.07-74.044,48.595-96.817    c30.526,22.773,48.595,58.583,48.595,96.817c0,13.882-2.335,27.491-6.939,40.443c-1.391,3.91,0.652,8.207,4.564,9.597    c3.907,1.392,8.206-0.652,9.597-4.564c3.667-10.315,6.048-20.996,7.13-31.888c1.465-0.932,2.97-1.846,4.479-2.716    c33.111-19.118,73.159-21.373,108.144-6.324C492.034,370.557,470.056,404.112,436.944,423.229z" fill="#008cb1"/>
	</g>
</g>
<g>
</g>
<g>
</g>
<g>
</g>
<g>
</g>
<g>
</g>
<g>
</g>
<g>
</g>
<g>
</g>
<g>
</g>
<g>
</g>
<g>
</g>
<g>
</g>
<g>
</g>
<g>
</g>
<g>
</g>
</svg>
