<svg id="Capa_1" enable-background="new 0 0 512 512" height="512" viewBox="0 0 512 512" width="512" xmlns="http://www.w3.org/2000/svg"><g><path fill="#008cb1" d="m372 272h-56v-16.051c36.837-21.267 60-60.749 60-103.949v-52c0-55.14-44.86-100-100-100h-40c-55.14 0-100 44.86-100 100v52c0 43.201 23.163 82.682 60 103.949v16.051h-56c-77.196 0-140 62.804-140 140v80c0 11.046 8.954 20 20 20h472c11.046 0 20-8.954 20-20v-80c0-77.196-62.804-140-140-140zm-136-232h40c33.084 0 60 26.916 60 60v2.629l-28.906-19.271c-6.137-4.091-14.027-4.473-20.531-.992-6.503 3.481-10.563 10.258-10.563 17.634 0 11.028-8.972 20-20 20h-80v-20c0-33.084 26.916-60 60-60zm-59.59 120h79.59c21.568 0 40.515-11.439 51.091-28.569l28.909 19.273v1.296c0 31.818-18.844 60.61-48.007 73.352-7.285 3.183-11.993 10.378-11.993 18.327v48.321c0 11.028-8.972 20-20 20s-20-8.972-20-20v-48.321c0-7.949-4.708-15.144-11.993-18.327-26.696-11.664-44.734-36.78-47.597-65.352zm-56.41 292c0-11.028 8.972-20 20-20s20 8.972 20 20-8.972 20-20 20-20-8.972-20-20zm-80-40c0-48.293 34.411-88.698 80-97.989v81.43c-23.278 8.256-40 30.487-40 56.56 0 7.011 1.22 13.74 3.44 20h-43.44zm432 60h-275.44c2.22-6.26 3.44-12.989 3.44-20 0-26.073-16.722-48.303-40-56.56v-83.44h39.44c8.256 23.278 30.487 40 56.56 40s48.303-16.722 56.56-40h39.44v43.44c-23.278 8.256-40 30.487-40 56.56 0 11.046 8.954 20 20 20s20-8.954 20-20c0-11.028 8.972-20 20-20s20 8.972 20 20c0 11.046 8.954 20 20 20s20-8.954 20-20c0-26.073-16.722-48.303-40-56.56v-41.43c45.589 9.291 80 49.697 80 97.989z"/></g></svg>