<?xml version="1.0" encoding="iso-8859-1"?>
<!-- Generator: Adobe Illustrator 19.0.0, SVG Export Plug-In . SVG Version: 6.00 Build 0)  -->
<svg xmlns="http://www.w3.org/2000/svg" xmlns:xlink="http://www.w3.org/1999/xlink" version="1.1" id="Layer_1" x="0px" y="0px" viewBox="0 0 512.001 512.001" style="enable-background:new 0 0 512.001 512.001;" xml:space="preserve" width="512px" height="512px">
<g>
	<g>
		<path d="M462.378,118.592H349.222V76.983c0-20.373-16.575-36.948-36.948-36.948H199.726c-20.373,0-36.947,16.575-36.947,36.948    v41.609H49.622C22.261,118.592,0,140.852,0,168.214v177.293c0,4.345,3.522,7.867,7.867,7.867c4.345,0,7.867-3.522,7.867-7.867    V199.885h97.617c4.344,0,7.867-3.522,7.867-7.867c0-4.345-3.522-7.867-7.867-7.867H15.733v-15.937    c0-18.686,15.203-33.889,33.889-33.889h412.755c18.686,0,33.89,15.203,33.89,33.889v15.937h-53.65    c-4.346,0-7.867,3.522-7.867,7.867c0,4.345,3.521,7.867,7.867,7.867h53.65v205.584h-97.617c-4.346,0-7.867,3.522-7.867,7.867    c0,4.345,3.521,7.867,7.867,7.867h97.617v1.142c0,18.686-15.203,33.889-33.89,33.889H49.622    c-18.686,0-33.889-15.203-33.889-33.889v-1.142h97.617c4.344,0,7.867-3.522,7.867-7.867s-3.522-7.867-7.867-7.867H15.733v-34.147    c0-4.345-3.522-7.867-7.867-7.867c-4.344,0-7.867,3.522-7.867,7.867v51.023c0,27.362,22.261,49.622,49.622,49.622h412.755    c27.363,0,49.623-22.261,49.623-49.622v-254.13C512,140.852,489.74,118.592,462.378,118.592z M333.488,118.592H178.512V76.983    c0-11.697,9.517-21.215,21.214-21.215h112.548c11.697,0,21.215,9.517,21.215,21.215V118.592z" fill="#138eb2"/>
	</g>
</g>
<g>
	<g>
		<path d="M256,163.095c-71.16,0-129.053,57.893-129.053,129.054c0,71.16,57.893,129.053,129.053,129.053    s129.053-57.893,129.053-129.053S327.16,163.095,256,163.095z M256,405.468c-62.485,0-113.32-50.835-113.32-113.32    S193.515,178.828,256,178.828s113.32,50.835,113.32,113.321C369.32,354.634,318.485,405.468,256,405.468z" fill="#138eb2"/>
	</g>
</g>
<g>
	<g>
		<path d="M416.656,184.151H398.65c-4.346,0-7.867,3.522-7.867,7.867c0,4.344,3.521,7.867,7.867,7.867h18.006    c4.346,0,7.867-3.522,7.867-7.867C424.523,187.673,421.002,184.151,416.656,184.151z" fill="#138eb2"/>
	</g>
</g>
<g>
	<g>
		<path d="M326.411,263.018h-41.28v-41.28c0-4.345-3.521-7.867-7.867-7.867h-42.529c-4.345,0-7.867,3.522-7.867,7.867v41.28h-41.28    c-4.345,0-7.867,3.522-7.867,7.867v42.529c0,4.344,3.522,7.867,7.867,7.867h41.28v41.28c0,4.344,3.522,7.867,7.867,7.867h42.529    c4.346,0,7.867-3.522,7.867-7.867v-41.28h41.28c4.346,0,7.867-3.522,7.867-7.867v-42.529    C334.278,266.54,330.757,263.018,326.411,263.018z M318.545,305.546h-41.28c-4.345,0-7.867,3.522-7.867,7.867v41.28h-26.795    v-41.28c0-4.345-3.522-7.867-7.867-7.867h-41.28v-26.795h41.28c4.345,0,7.867-3.522,7.867-7.867v-41.28h26.795v41.28    c0,4.345,3.522,7.867,7.867,7.867h41.28V305.546z" fill="#138eb2"/>
	</g>
</g>
<g>
</g>
<g>
</g>
<g>
</g>
<g>
</g>
<g>
</g>
<g>
</g>
<g>
</g>
<g>
</g>
<g>
</g>
<g>
</g>
<g>
</g>
<g>
</g>
<g>
</g>
<g>
</g>
<g>
</g>
</svg>
