<?xml version="1.0" encoding="iso-8859-1"?>
<!-- Generator: Adobe Illustrator 18.0.0, SVG Export Plug-In . SVG Version: 6.00 Build 0)  -->
<!DOCTYPE svg PUBLIC "-//W3C//DTD SVG 1.1//EN" "http://www.w3.org/Graphics/SVG/1.1/DTD/svg11.dtd">
<svg xmlns="http://www.w3.org/2000/svg" xmlns:xlink="http://www.w3.org/1999/xlink" version="1.1" id="Capa_1" x="0px" y="0px" viewBox="0 0 481.24 481.24" style="enable-background:new 0 0 481.24 481.24;" xml:space="preserve" width="512px" height="512px">
<g>
	<path d="M211.507,243.538c0,16.776,11.539,30.425,25.721,30.425c14.182,0,25.719-13.648,25.719-30.425   c0-16.775-11.538-30.423-25.719-30.423C223.045,213.115,211.507,226.763,211.507,243.538z M245.947,243.538   c0,7.911-4.595,13.425-8.719,13.425c-4.125,0-8.721-5.514-8.721-13.425c0-7.91,4.596-13.423,8.721-13.423   C241.352,230.115,245.947,235.628,245.947,243.538z" fill="#008cb1"/>
	<path d="M271.674,223.797c0,16.775,11.538,30.424,25.719,30.424c14.183,0,25.721-13.648,25.721-30.424   s-11.539-30.424-25.721-30.424C283.212,193.373,271.674,207.021,271.674,223.797z M306.115,223.797   c0,7.911-4.596,13.424-8.721,13.424c-4.124,0-8.719-5.513-8.719-13.424c0-7.911,4.595-13.424,8.719-13.424   C301.519,210.373,306.115,215.886,306.115,223.797z" fill="#008cb1"/>
	<path d="M475.242,100.396L380.849,6.004C376.977,2.132,371.829,0,366.354,0c-5.476,0-10.624,2.132-14.496,6.004L340.192,17.67   c-3.872,3.872-6.004,9.02-6.004,14.496c0,5.476,2.132,10.623,6.004,14.495l41.186,41.187l-17.676,17.676l-41.187-41.187   c-3.872-3.872-9.02-6.004-14.496-6.004c-5.476,0-10.624,2.132-14.496,6.004L126.295,231.566c-3.872,3.872-6.004,9.02-6.004,14.496   s2.132,10.624,6.004,14.496l18.558,18.558L127.16,296.81c-3.872,3.872-6.005,9.021-6.005,14.496c0,5.476,2.133,10.624,6.005,14.496   l8.131,8.131L2.494,466.729c-3.32,3.319-3.32,8.702,0,12.022c1.66,1.659,3.834,2.489,6.01,2.489c2.175,0,4.351-0.83,6.01-2.489   l132.798-132.797l8.132,8.132c3.872,3.872,9.02,6.004,14.496,6.004c5.476,0,10.624-2.132,14.496-6.004l17.695-17.695l18.558,18.559   c3.872,3.872,9.02,6.005,14.496,6.005c5.476,0,10.623-2.133,14.495-6.004l11.415-11.415c5.632-0.49,11.622-1.863,17.458-3.216   c6.153-1.426,12.516-2.899,17.028-2.899c3.953,0,10.001,1.41,15.852,2.774c7.471,1.742,15.197,3.544,22.23,3.543   c14.608-0.001,22.987-8.332,22.987-22.857c0-31.288-27.396-56.743-61.069-56.743c-33.672,0-61.067,25.455-61.067,56.743   c0,8.02,2.516,14.14,7.17,18.023l-4.026,4.026c-0.892,0.892-1.933,1.024-2.474,1.024c-0.542,0-1.583-0.133-2.475-1.025   l-94.393-94.393c-1.365-1.364-1.365-3.585,0-4.949l37.567-37.567l10.125,10.124c1.66,1.659,3.835,2.489,6.01,2.489   s4.351-0.83,6.011-2.49c3.319-3.319,3.319-8.701-0.001-12.02l-10.124-10.124l18.737-18.736l10.124,10.125   c1.66,1.659,3.835,2.489,6.011,2.489c2.175,0,4.351-0.83,6.01-2.489c3.319-3.319,3.32-8.701,0.001-12.021l-10.124-10.125   l58.539-58.539l99.343,99.343l-10.466,10.466c-0.077,0.077-0.144,0.161-0.217,0.24c-2.606-1.055-5.396-1.635-8.3-1.635   c-14.183,0-25.721,13.647-25.721,30.423c0,16.776,11.539,30.425,25.721,30.425c14.183,0,25.721-13.648,25.721-30.425   c0-6.509-1.743-12.541-4.697-17.493l38.324-38.324c7.992-7.992,7.992-20.998,0-28.991l-41.186-41.186l17.676-17.676l41.187,41.187   c3.872,3.871,9.02,6.003,14.495,6.003c5.476,0,10.623-2.132,14.496-6.003l11.667-11.667   C483.234,121.396,483.234,108.39,475.242,100.396z M295.581,281.137c24.3,0,44.069,17.829,44.069,39.743   c0,5.036-0.839,5.857-5.988,5.857c-5.078,0-11.835-1.575-18.369-3.099c-7.099-1.655-13.804-3.219-19.712-3.219   c-6.456,0-13.781,1.697-20.865,3.338c-6.323,1.465-12.862,2.979-17.661,2.979c-2.56,0-3.983-0.452-4.462-0.875   c-0.498-0.441-1.08-2.011-1.08-4.982C251.514,298.966,271.282,281.137,295.581,281.137z M172.415,342.065   c-0.892,0.893-1.934,1.025-2.475,1.025s-1.583-0.133-2.475-1.025L139.18,313.78c-0.892-0.892-1.025-1.934-1.025-2.475   c0-0.541,0.133-1.583,1.025-2.475l17.694-17.694l33.234,33.233L172.415,342.065z M357.561,256.963   c-4.125,0-8.721-5.514-8.721-13.425c0-7.91,4.596-13.423,8.721-13.423c4.125,0,8.721,5.513,8.721,13.423   C366.282,251.449,361.686,256.963,357.561,256.963z M404.888,175.7l-16.323,16.323l-99.343-99.343l16.322-16.322   c1.365-1.365,3.585-1.365,4.95,0l94.393,94.392C406.252,172.115,406.252,174.336,404.888,175.7z M463.222,117.367l-11.666,11.666   c-0.892,0.892-1.934,1.024-2.476,1.024s-1.583-0.133-2.475-1.024L352.212,34.64c-0.892-0.892-1.025-1.933-1.025-2.474   c0-0.542,0.133-1.583,1.025-2.475l11.667-11.667c0.892-0.892,1.933-1.024,2.475-1.024s1.583,0.133,2.475,1.025l94.393,94.392   C464.586,113.782,464.586,116.003,463.222,117.367z" fill="#008cb1"/>
</g>
<g>
</g>
<g>
</g>
<g>
</g>
<g>
</g>
<g>
</g>
<g>
</g>
<g>
</g>
<g>
</g>
<g>
</g>
<g>
</g>
<g>
</g>
<g>
</g>
<g>
</g>
<g>
</g>
<g>
</g>
</svg>
